<svg xmlns="http://www.w3.org/2000/svg" xmlns:xlink="http://www.w3.org/1999/xlink" viewBox="0 0 850.39 566.93"><defs><style>.cls-1{mask:url(#mask);filter:url(#luminosity-noclip-3);}.cls-2,.cls-4{mix-blend-mode:multiply;}.cls-2{fill:url(#linear-gradient);}.cls-3{mask:url(#mask-2);filter:url(#luminosity-noclip-4);}.cls-4{fill:url(#linear-gradient-2);}.cls-14,.cls-5{fill:none;}.cls-6{fill:#e6e7fb;}.cls-7{fill:#f9cf00;}.cls-8{fill:#d6705b;}.cls-9{fill:#fff;}.cls-10{fill:#f2715a;}.cls-11{clip-path:url(#clip-path);}.cls-12{clip-path:url(#clip-path-2);}.cls-13{fill:#272525;}.cls-14{stroke:#d6705b;stroke-linecap:round;stroke-linejoin:round;stroke-width:0.83px;}.cls-15{fill:#f0f1f1;}.cls-16{fill:#d24a43;}.cls-17{fill:#3cb6b3;}.cls-18{fill:#52ac62;}.cls-19{fill:#d76446;}.cls-20{fill:#d77846;}.cls-21{fill:#d7569c;}.cls-22{fill:url(#linear-gradient-3);}.cls-23{fill:#fbcac9;}.cls-24{fill:#ff7b98;}.cls-25{fill:url(#linear-gradient-4);}.cls-26{fill:#fbb7a3;}.cls-27{fill:#00ddd9;}.cls-28{fill:url(#linear-gradient-5);}.cls-29{fill:url(#linear-gradient-6);}.cls-30{fill:url(#linear-gradient-7);}.cls-31{fill:url(#linear-gradient-8);}.cls-32{fill:url(#linear-gradient-9);}.cls-33{fill:url(#linear-gradient-10);}.cls-34{fill:url(#linear-gradient-11);}.cls-35{fill:#36208d;}.cls-36{fill:url(#linear-gradient-12);}.cls-37{fill:url(#linear-gradient-13);}.cls-38{fill:url(#linear-gradient-14);}.cls-39{mask:url(#mask-3);}.cls-40{fill:url(#linear-gradient-15);}.cls-41{fill:url(#linear-gradient-16);}.cls-42{fill:#532aa1;}.cls-43{fill:url(#linear-gradient-17);}.cls-44{fill:#8767aa;}.cls-45{fill:url(#linear-gradient-18);}.cls-46{fill:url(#linear-gradient-19);}.cls-47{fill:url(#linear-gradient-20);}.cls-48{fill:url(#linear-gradient-21);}.cls-49{fill:url(#linear-gradient-22);}.cls-50{fill:url(#linear-gradient-23);}.cls-51{fill:url(#linear-gradient-24);}.cls-52{fill:url(#linear-gradient-25);}.cls-53{fill:#fbaf9d;}.cls-54{fill:url(#linear-gradient-26);}.cls-55{mask:url(#mask-4);}.cls-56{fill:url(#linear-gradient-27);}.cls-57{fill:#4099ef;}.cls-58{filter:url(#luminosity-noclip-2);}.cls-59{filter:url(#luminosity-noclip);}</style><filter id="luminosity-noclip" x="481.52" y="-8475" width="34.18" height="32766" filterUnits="userSpaceOnUse" color-interpolation-filters="sRGB"><feFlood flood-color="#fff" result="bg"/><feBlend in="SourceGraphic" in2="bg"/></filter><mask id="mask" x="481.52" y="-8475" width="34.18" height="32766" maskUnits="userSpaceOnUse"><g class="cls-59"/></mask><linearGradient id="linear-gradient" x1="485.68" y1="376.27" x2="501.61" y2="389.36" gradientUnits="userSpaceOnUse"><stop offset="0" stop-color="gray"/><stop offset="0.31" stop-color="#575757"/><stop offset="1"/></linearGradient><filter id="luminosity-noclip-2" x="266.63" y="-8475" width="24.49" height="32766" filterUnits="userSpaceOnUse" color-interpolation-filters="sRGB"><feFlood flood-color="#fff" result="bg"/><feBlend in="SourceGraphic" in2="bg"/></filter><mask id="mask-2" x="266.63" y="-8475" width="24.49" height="32766" maskUnits="userSpaceOnUse"><g class="cls-58"/></mask><linearGradient id="linear-gradient-2" x1="280.2" y1="327.77" x2="277.25" y2="355.17" xlink:href="#linear-gradient"/><clipPath id="clip-path"><polygon class="cls-5" points="198.01 386.35 199.34 386.91 198.01 386.35 198.01 386.35"/></clipPath><clipPath id="clip-path-2"><rect class="cls-5" x="192.81" y="377.32" width="65.25" height="65.25"/></clipPath><linearGradient id="linear-gradient-3" x1="488.1" y1="457.82" x2="498.12" y2="468.02" gradientUnits="userSpaceOnUse"><stop offset="0" stop-color="#f58c8b"/><stop offset="1" stop-color="#fc561a"/></linearGradient><linearGradient id="linear-gradient-4" x1="447.51" y1="417.03" x2="461.1" y2="430.87" xlink:href="#linear-gradient-3"/><linearGradient id="linear-gradient-5" x1="527.31" y1="353.68" x2="531.2" y2="395.78" gradientUnits="userSpaceOnUse"><stop offset="0" stop-color="#679eed"/><stop offset="0.04" stop-color="#6698ed"/><stop offset="0.33" stop-color="#6070ea"/><stop offset="0.6" stop-color="#5c53e8"/><stop offset="0.83" stop-color="#5941e7"/><stop offset="1" stop-color="#583be7"/></linearGradient><linearGradient id="linear-gradient-6" x1="488.32" y1="384.39" x2="495.17" y2="458.54" gradientUnits="userSpaceOnUse"><stop offset="0" stop-color="#5885e7"/><stop offset="0.21" stop-color="#597fe8"/><stop offset="0.5" stop-color="#5d6de9"/><stop offset="0.84" stop-color="#6350ec"/><stop offset="1" stop-color="#6740ed"/></linearGradient><linearGradient id="linear-gradient-7" x1="521.64" y1="363.25" x2="540.23" y2="407.06" xlink:href="#linear-gradient-6"/><linearGradient id="linear-gradient-8" x1="-161.66" y1="274.64" x2="-161.66" y2="297.13" gradientTransform="matrix(-0.99, 0.11, 0.11, 0.99, 345.58, 30.5)" gradientUnits="userSpaceOnUse"><stop offset="0" stop-color="#e85f5a"/><stop offset="1" stop-color="#eec9c8"/></linearGradient><linearGradient id="linear-gradient-9" x1="521.88" y1="275.49" x2="542.18" y2="278.58" gradientUnits="userSpaceOnUse"><stop offset="0" stop-color="#ebb9a4"/><stop offset="0.17" stop-color="#e9b3a0"/><stop offset="0.38" stop-color="#e4a394"/><stop offset="0.61" stop-color="#dc8981"/><stop offset="0.87" stop-color="#d06567"/><stop offset="1" stop-color="#c94f57"/></linearGradient><linearGradient id="linear-gradient-10" x1="544.62" y1="255.61" x2="567.47" y2="255.61" gradientTransform="translate(-70.8 247.38) rotate(-19.94)" gradientUnits="userSpaceOnUse"><stop offset="0" stop-color="#fff5dc"/><stop offset="0.34" stop-color="#fff6e0"/><stop offset="0.67" stop-color="#fff9eb"/><stop offset="1" stop-color="#fff"/><stop offset="1" stop-color="#fff"/></linearGradient><linearGradient id="linear-gradient-11" x1="546.78" y1="318.89" x2="553.15" y2="387.82" gradientUnits="userSpaceOnUse"><stop offset="0" stop-color="#2d2383"/><stop offset="0.1" stop-color="#36268b"/><stop offset="0.46" stop-color="#5331a4"/><stop offset="0.77" stop-color="#6537b4"/><stop offset="1" stop-color="#6b39b9"/></linearGradient><linearGradient id="linear-gradient-12" x1="535.36" y1="322.51" x2="569.93" y2="302.38" gradientTransform="translate(52 -114.81) rotate(9.73)" gradientUnits="userSpaceOnUse"><stop offset="0" stop-color="#fa902f"/><stop offset="0.17" stop-color="#f7a030"/><stop offset="0.45" stop-color="#f3b530"/><stop offset="0.73" stop-color="#f1c231"/><stop offset="1" stop-color="#f0c631"/></linearGradient><linearGradient id="linear-gradient-13" x1="527.39" y1="284.84" x2="535.38" y2="284.84" gradientTransform="matrix(1, 0, 0, 1, 0, 0)" xlink:href="#linear-gradient-10"/><linearGradient id="linear-gradient-14" x1="475.65" y1="279.36" x2="497.28" y2="298.45" gradientUnits="userSpaceOnUse"><stop offset="0" stop-color="#2d2383"/><stop offset="0.19" stop-color="#302484"/><stop offset="0.34" stop-color="#3a2686"/><stop offset="0.48" stop-color="#4b2a8a"/><stop offset="0.62" stop-color="#632f8f"/><stop offset="0.75" stop-color="#833796"/><stop offset="0.87" stop-color="#a93f9e"/><stop offset="0.99" stop-color="#d549a7"/><stop offset="1" stop-color="#d84aa8"/></linearGradient><filter id="luminosity-noclip-3" x="481.52" y="363.31" width="34.18" height="48.49" filterUnits="userSpaceOnUse" color-interpolation-filters="sRGB"><feFlood flood-color="#fff" result="bg"/><feBlend in="SourceGraphic" in2="bg"/></filter><mask id="mask-3" x="481.52" y="363.31" width="34.18" height="48.49" maskUnits="userSpaceOnUse"><g class="cls-1"><path class="cls-2" d="M515.7,364.3l-14.8,22.4L499.37,389l-15.06,22.78-2.79-13.19,7.73-13.66,8.51-15,3.74-6.6Z"/></g></mask><linearGradient id="linear-gradient-15" x1="485.68" y1="376.27" x2="501.61" y2="389.36" gradientUnits="userSpaceOnUse"><stop offset="0" stop-color="#3f2393"/><stop offset="0.02" stop-color="#3f2595"/><stop offset="1" stop-color="#4c77ec"/></linearGradient><linearGradient id="linear-gradient-16" x1="480.93" y1="362.28" x2="486.22" y2="419.44" gradientUnits="userSpaceOnUse"><stop offset="0" stop-color="#679eed"/><stop offset="0.03" stop-color="#669ded"/><stop offset="0.59" stop-color="#5c8be8"/><stop offset="1" stop-color="#5885e7"/></linearGradient><linearGradient id="linear-gradient-17" x1="267.64" y1="455.41" x2="297.9" y2="463.36" xlink:href="#linear-gradient-14"/><linearGradient id="linear-gradient-18" x1="271.89" y1="323.95" x2="284.65" y2="461.98" xlink:href="#linear-gradient-11"/><linearGradient id="linear-gradient-19" x1="303.92" y1="325.92" x2="316.78" y2="465.05" xlink:href="#linear-gradient-11"/><linearGradient id="linear-gradient-20" x1="281.12" y1="213.6" x2="292.17" y2="239.64" xlink:href="#linear-gradient-6"/><linearGradient id="linear-gradient-21" x1="1502.02" y1="383.17" x2="1502.02" y2="403.83" gradientTransform="translate(-1164.16 -302.14) rotate(3.99)" xlink:href="#linear-gradient-8"/><linearGradient id="linear-gradient-22" x1="1508.11" y1="429.16" x2="1490.27" y2="413.67" gradientTransform="matrix(1, 0.03, -0.03, 1, -1171.57, -286.56)" gradientUnits="userSpaceOnUse"><stop offset="0" stop-color="#ebb9a4"/><stop offset="0.2" stop-color="#eab5a1"/><stop offset="0.4" stop-color="#e6aa99"/><stop offset="0.58" stop-color="#e0978b"/><stop offset="0.77" stop-color="#d77c78"/><stop offset="0.95" stop-color="#cc5a5f"/><stop offset="1" stop-color="#c94f57"/></linearGradient><linearGradient id="linear-gradient-23" x1="282.63" y1="201.23" x2="304.09" y2="201.23" gradientTransform="matrix(0.96, 0.27, -0.27, 0.96, 78.84, -73.21)" gradientUnits="userSpaceOnUse"><stop offset="0.01" stop-color="#edf1f4"/><stop offset="0.53" stop-color="#e2e7ef"/><stop offset="1" stop-color="#cfd6e0"/></linearGradient><linearGradient id="linear-gradient-24" x1="292.57" y1="230.2" x2="300.99" y2="321.29" gradientTransform="matrix(0.96, 0.27, -0.27, 0.96, 78.84, -73.21)" xlink:href="#linear-gradient-16"/><linearGradient id="linear-gradient-25" x1="298.69" y1="163.49" x2="318.48" y2="180.95" xlink:href="#linear-gradient-14"/><linearGradient id="linear-gradient-26" x1="298.38" y1="450.1" x2="320.21" y2="469.36" gradientTransform="translate(-143.14 148.38) rotate(-21.36)" xlink:href="#linear-gradient-14"/><filter id="luminosity-noclip-4" x="266.63" y="312.97" width="24.49" height="52.66" filterUnits="userSpaceOnUse" color-interpolation-filters="sRGB"><feFlood flood-color="#fff" result="bg"/><feBlend in="SourceGraphic" in2="bg"/></filter><mask id="mask-4" x="266.63" y="312.97" width="24.49" height="52.66" maskUnits="userSpaceOnUse"><g class="cls-3"><polygon class="cls-4" points="269.66 312.96 291.12 339.16 286.31 365.62 266.63 341.98 269.66 312.96"/></g></mask><linearGradient id="linear-gradient-27" x1="280.2" y1="327.77" x2="277.25" y2="355.17" gradientUnits="userSpaceOnUse"><stop offset="0" stop-color="#2b1863"/><stop offset="1" stop-color="#4b289c"/></linearGradient></defs><title>Artboard 5</title><g id="icon"><polygon class="cls-6" points="721.11 428.67 692.7 429.99 705.76 404.73 734.17 403.41 721.11 428.67"/><polygon class="cls-7" points="690.98 427.3 664.5 386 692.91 384.68 719.38 425.98 690.98 427.3"/><path class="cls-8" d="M691,427.8a.5.5,0,0,1-.42-.23l-26.48-41.3a.52.52,0,0,1,0-.5.49.49,0,0,1,.42-.27l28.41-1.32a.46.46,0,0,1,.44.23l26.47,41.3a.49.49,0,0,1-.39.77L691,427.8Zm-25.59-41.34,25.85,40.33,27.26-1.27-25.85-40.33Z"/><polygon class="cls-9" points="692.91 384.68 664.51 386 677.57 360.74 705.97 359.42 692.91 384.68"/><path class="cls-8" d="M664.51,386.5a.48.48,0,0,1-.42-.23.5.5,0,0,1,0-.5l13.06-25.26a.49.49,0,0,1,.42-.27L706,358.92a.45.45,0,0,1,.44.23.5.5,0,0,1,0,.5l-13.06,25.26a.52.52,0,0,1-.42.27l-28.41,1.32Zm13.37-25.27-12.53,24.23,27.25-1.26L705.13,360Z"/><path class="cls-8" d="M719.38,426.48a.5.5,0,0,1-.42-.23L692.49,385a.47.47,0,0,1,0-.5l13.06-25.26a.49.49,0,0,1,.42-.27.45.45,0,0,1,.44.23l26.48,41.3a.52.52,0,0,1,0,.5l-13.06,25.26a.49.49,0,0,1-.42.27Zm-25.89-41.82L719.34,425l12.53-24.24L706,360.42Z"/><polygon class="cls-6" points="186.88 220.83 230.23 210.31 199.44 178.02 156.09 188.54 186.88 220.83"/><polygon class="cls-9" points="231.65 205.49 244.21 162.69 200.86 173.21 188.29 216.01 231.65 205.49"/><path class="cls-8" d="M188.29,216.51a.5.5,0,0,1-.48-.64l12.57-42.8a.51.51,0,0,1,.36-.35l43.35-10.52a.5.5,0,0,1,.48.14.49.49,0,0,1,.12.49l-12.56,42.8a.51.51,0,0,1-.36.35L188.41,216.5Zm13-42.88L189,215.32l42.23-10.25,12.24-41.7Z"/><polygon class="cls-9" points="200.86 173.21 244.21 162.69 213.42 130.4 170.07 140.92 200.86 173.21"/><path class="cls-8" d="M200.86,173.71a.48.48,0,0,1-.36-.16l-30.79-32.28a.5.5,0,0,1,.24-.83l43.35-10.53a.5.5,0,0,1,.48.15l30.79,32.28a.49.49,0,0,1,.12.49.5.5,0,0,1-.36.34L201,173.69ZM171,141.21l30,31.44,42.23-10.25-30-31.45Z"/><path class="cls-8" d="M188.29,216.51a.51.51,0,0,1-.36-.15l-30.79-32.28a.52.52,0,0,1-.12-.49l12.57-42.81a.5.5,0,0,1,.36-.34.48.48,0,0,1,.48.14l30.79,32.28a.52.52,0,0,1,.12.49l-12.57,42.81a.48.48,0,0,1-.36.34Zm-30.22-32.92,30,31.45,12.24-41.7-30-31.44Z"/><polygon class="cls-9" points="214.24 187.24 219.69 168.64 200.86 173.21 195.4 191.81 214.24 187.24"/><path class="cls-8" d="M195.4,192.31a.48.48,0,0,1-.36-.16.48.48,0,0,1-.12-.48l5.46-18.6a.51.51,0,0,1,.36-.35l18.84-4.57a.49.49,0,0,1,.59.63l-5.45,18.6a.49.49,0,0,1-.37.34l-18.83,4.57Zm5.86-18.68-5.14,17.49,17.72-4.3L219,169.33Z"/><polygon class="cls-9" points="200.86 173.21 219.69 168.64 206.32 154.61 187.48 159.18 200.86 173.21"/><path class="cls-8" d="M200.86,173.71a.48.48,0,0,1-.36-.16l-13.38-14A.49.49,0,0,1,187,159a.53.53,0,0,1,.36-.35l18.84-4.57a.5.5,0,0,1,.48.14l13.38,14a.51.51,0,0,1,.11.49.48.48,0,0,1-.36.34L201,173.69Zm-12.42-14.25L201,172.65l17.72-4.3-12.59-13.19Z"/><polygon class="cls-7" points="195.4 191.81 200.86 173.21 187.48 159.18 182.02 177.78 195.4 191.81"/><path class="cls-8" d="M195.4,192.31a.48.48,0,0,1-.36-.16l-13.38-14a.52.52,0,0,1-.12-.49L187,159a.5.5,0,0,1,.36-.34.48.48,0,0,1,.48.14l13.38,14a.52.52,0,0,1,.12.49L195.88,192a.5.5,0,0,1-.36.34Zm-12.82-14.67,12.58,13.2,5.14-17.5-12.58-13.19Z"/><path class="cls-6" d="M199.88,381.35c1.12,14.68-9,21.78-23.14,15.85s-27.33-22.74-30.06-38.1l-10.05-4.2c3.51,21.32,21.78,44.85,41.49,53.09s33.68-1.81,31.81-22.44Z"/><path class="cls-10" d="M189.29,382.71c1.11,14.68-9,21.78-23.15,15.85s-27.32-22.74-30.06-38.1l-10-4.2c3.51,21.32,21.78,44.85,41.49,53.09s33.67-1.81,31.81-22.44Z"/><polygon class="cls-9" points="126.04 356.26 137.02 348.12 147.06 352.32 136.08 360.46 126.04 356.26"/><path class="cls-8" d="M136.08,361a.43.43,0,0,1-.19,0l-10-4.2a.5.5,0,0,1-.3-.4.48.48,0,0,1,.2-.46l11-8.14a.48.48,0,0,1,.49-.06l10,4.2a.5.5,0,0,1,.3.4.49.49,0,0,1-.2.46l-11,8.14A.47.47,0,0,1,136.08,361Zm-9-4.82,9,3.75,10.05-7.45-9-3.75Z"/><polygon class="cls-9" points="189.29 382.71 200.27 374.57 210.32 378.77 199.34 386.91 189.29 382.71"/><path class="cls-8" d="M199.34,387.41a.45.45,0,0,1-.2,0l-10-4.2a.49.49,0,0,1-.31-.4.5.5,0,0,1,.2-.46l11-8.14a.5.5,0,0,1,.5-.06l10,4.2a.49.49,0,0,1,.11.86l-11,8.14A.45.45,0,0,1,199.34,387.41Zm-9.05-4.82,9,3.75,10-7.45-9-3.75Z"/><g class="cls-11"><g class="cls-12"><polygon class="cls-13" points="254.8 443.43 254.62 443.19 260.38 438.71 260.56 438.94 254.8 443.43"/><polygon class="cls-13" points="257.25 446.58 257.07 446.35 262.83 441.86 263.02 442.1 257.25 446.58"/><polygon class="cls-13" points="236.35 445.53 236.1 445.37 236.18 445.24 239.96 439.64 240.2 439.81 240.12 439.94 236.35 445.53"/><rect class="cls-13" x="236.54" y="445.01" width="7.3" height="0.3" transform="translate(-239.65 285.11) rotate(-43.2)"/><polygon class="cls-13" points="248.22 447.77 245.74 441.71 246.02 441.6 248.5 447.66 248.22 447.77"/><rect class="cls-13" x="250.28" y="440.16" width="0.3" height="7.59" transform="translate(-148.99 127.29) rotate(-22.17)"/><polygon class="cls-13" points="215.09 445.67 214.9 445.43 220.83 440.87 221.02 441.1 215.09 445.67"/><rect class="cls-13" x="216.79" y="444.95" width="9.32" height="0.3" transform="translate(-241.02 262.7) rotate(-42.02)"/><polygon class="cls-13" points="201.93 443.5 201.63 443.45 201.93 441.65 202.23 441.7 201.93 443.5"/><rect class="cls-13" x="209.02" y="439.15" width="0.3" height="7.53" transform="translate(-221.52 209.61) rotate(-36.28)"/><rect class="cls-13" x="211.85" y="436.32" width="0.3" height="7.53" transform="translate(-219.33 210.8) rotate(-36.28)"/><polygon class="cls-13" points="231.92 446.74 231.4 439.94 231.69 439.91 232.22 446.71 231.92 446.74"/><polygon class="cls-13" points="227.42 446.25 227.13 446.19 228.69 439.15 228.99 439.21 227.42 446.25"/><polygon class="cls-13" points="189.55 443.43 189.37 443.19 195.13 438.71 195.31 438.94 189.55 443.43"/><polygon class="cls-13" points="192 446.58 191.82 446.35 197.58 441.86 197.77 442.1 192 446.58"/><rect class="cls-13" x="210.03" y="403.32" width="7.3" height="0.3" transform="translate(-242.88 406.25) rotate(-62.44)"/><polygon class="cls-13" points="236.91 423.01 229.05 420.88 229.13 420.59 236.99 422.72 236.91 423.01"/><polygon class="cls-13" points="238.18 419.25 238.03 419.22 230.13 417.95 230.18 417.65 230.33 417.68 238.23 418.95 238.18 419.25"/><polygon class="cls-13" points="222.87 438.28 222.6 438.14 225.49 432.62 225.76 432.76 222.87 438.28"/><polygon class="cls-13" points="219.37 437.78 219.1 437.64 222.27 431.59 222.53 431.73 219.37 437.78"/><rect class="cls-13" x="233.33" y="434.42" width="6.2" height="0.3" transform="translate(-211.61 224.77) rotate(-36.36)"/><rect class="cls-13" x="235.29" y="437.17" width="5.78" height="0.3" transform="translate(-243.74 311.9) rotate(-46.84)"/><polygon class="cls-13" points="243.46 430.74 242.52 423.5 242.82 423.46 243.76 430.7 243.46 430.74"/><rect class="cls-13" x="239.41" y="424.29" width="0.3" height="7.03" transform="translate(-92.09 66.67) rotate(-13.32)"/><rect class="cls-13" x="209.02" y="439.15" width="0.3" height="7.53" transform="translate(-221.52 209.61) rotate(-36.28)"/><rect class="cls-13" x="211.85" y="436.32" width="0.3" height="7.53" transform="translate(-219.33 210.8) rotate(-36.28)"/><rect class="cls-13" x="214.9" y="425.37" width="0.3" height="7.3" transform="translate(-182.87 160.76) rotate(-29.39)"/><rect class="cls-13" x="218.21" y="424.05" width="0.3" height="7.3" transform="translate(-145.32 114.1) rotate(-22.18)"/><rect class="cls-13" x="220.01" y="423.17" width="6.35" height="0.3" transform="translate(-180.53 166.36) rotate(-29.72)"/><rect class="cls-13" x="222.24" y="425.92" width="6.39" height="0.3" transform="translate(-127.2 97.43) rotate(-19.13)"/><polygon class="cls-13" points="236.35 445.53 236.1 445.37 236.18 445.24 239.96 439.64 240.2 439.81 240.12 439.94 236.35 445.53"/><rect class="cls-13" x="236.54" y="445.01" width="7.3" height="0.3" transform="translate(-239.65 285.11) rotate(-43.2)"/><polygon class="cls-13" points="248.22 447.77 245.74 441.71 246.02 441.6 248.5 447.66 248.22 447.77"/><polygon class="cls-13" points="215.09 445.67 214.9 445.43 220.83 440.87 221.02 441.1 215.09 445.67"/><rect class="cls-13" x="216.79" y="444.95" width="9.32" height="0.3" transform="translate(-241.02 262.7) rotate(-42.02)"/><rect class="cls-13" x="214.41" y="435.38" width="0.3" height="1.65" transform="translate(-146.58 110.8) rotate(-21.79)"/><rect class="cls-13" x="230.91" y="437.22" width="0.3" height="1.71" transform="translate(-242.09 291.69) rotate(-45)"/><polygon class="cls-13" points="231.92 446.74 231.4 439.94 231.69 439.91 232.22 446.71 231.92 446.74"/><polygon class="cls-13" points="227.42 446.25 227.13 446.19 228.69 439.15 228.99 439.21 227.42 446.25"/><rect class="cls-13" x="245.89" y="426.92" width="1.65" height="0.3" transform="translate(-140.66 121.79) rotate(-21.74)"/><polygon class="cls-13" points="225.43 429.5 225.13 427.7 225.43 427.65 225.73 429.45 225.43 429.5"/><rect class="cls-13" x="243.16" y="439.17" width="1.55" height="0.3"/><polygon class="cls-13" points="225.61 439.28 225.35 439.13 226.5 437.12 226.76 437.27 225.61 439.28"/><polygon class="cls-13" points="230.72 424.77 230.61 424.49 232.14 423.88 232.25 424.16 230.72 424.77"/><polygon class="cls-13" points="233.09 433 228.41 430.12 228.57 429.87 233.25 432.75 233.09 433"/><polygon class="cls-13" points="235.85 430.6 235.72 430.53 229.22 427.54 229.35 427.27 229.49 427.33 235.98 430.32 235.85 430.6"/><polygon class="cls-13" points="229.68 433.5 228.13 433.19 228.19 432.9 229.73 433.21 229.68 433.5"/><polygon class="cls-13" points="236.46 426.75 234.91 426.44 234.97 426.15 236.51 426.46 236.46 426.75"/><rect class="cls-13" x="211.24" y="431.17" width="2" height="0.3" transform="matrix(0.96, -0.29, 0.29, 0.96, -117.53, 81.56)"/><polygon class="cls-13" points="219.78 392.93 219.65 385.63 219.95 385.62 220.09 392.92 219.78 392.93"/><rect class="cls-13" x="219.95" y="388.86" width="6.97" height="0.3" transform="translate(-187.91 568.04) rotate(-83.65)"/><rect class="cls-13" x="239.54" y="402.73" width="0.3" height="7.3" transform="translate(-227.09 474.98) rotate(-67.83)"/><rect class="cls-13" x="241.05" y="399.02" width="0.3" height="7.3" transform="translate(-222.72 474.08) rotate(-67.83)"/><rect class="cls-13" x="219.16" y="398.94" width="6.3" height="0.3" transform="matrix(0.79, -0.61, 0.61, 0.79, -196.64, 216.97)"/><polygon class="cls-13" points="216.85 399.1 216.69 398.85 216.81 398.77 222.85 394.94 223.01 395.19 222.88 395.27 216.85 399.1"/><polygon class="cls-13" points="204.42 420.64 204.34 420.35 204.49 420.31 211.41 418.52 211.49 418.81 211.34 418.85 204.42 420.64"/><polygon class="cls-13" points="205.17 424.26 205.1 423.97 205.24 423.94 212.16 422.14 212.24 422.43 212.09 422.47 205.17 424.26"/><rect class="cls-13" x="207.23" y="401.47" width="7.3" height="0.3" transform="translate(-242.74 402.64) rotate(-62.43)"/><rect class="cls-13" x="202.06" y="387" width="0.3" height="7.3" transform="translate(-70.93 45.85) rotate(-11.02)"/><rect class="cls-13" x="205.99" y="386.24" width="0.3" height="7.3" transform="translate(-70.71 46.58) rotate(-11.02)"/><polygon class="cls-13" points="199.62 387.78 193.17 384.36 193.31 384.09 199.76 387.51 199.62 387.78"/><rect class="cls-13" x="192.51" y="396.67" width="6.41" height="0.3" transform="translate(-231.3 512.7) rotate(-78.93)"/><rect class="cls-13" x="196.07" y="396.99" width="7.3" height="0.3" transform="translate(-227.99 518.28) rotate(-79.12)"/><polygon class="cls-13" points="251.49 429.26 248.98 421.43 249.27 421.34 251.78 429.17 251.49 429.26"/><rect class="cls-13" x="253.56" y="421.4" width="0.3" height="6.84" transform="translate(-46.71 31.64) rotate(-6.54)"/><rect class="cls-13" x="240.18" y="416.51" width="7.3" height="0.3" transform="matrix(0.57, -0.82, 0.82, 0.57, -237.37, 377.87)"/><polygon class="cls-13" points="246.94 420.76 246.65 420.67 248.48 414.93 248.77 415.02 246.94 420.76"/><rect class="cls-13" x="220.01" y="404.95" width="0.3" height="7.3" transform="translate(-45.4 27.94) rotate(-6.58)"/><polygon class="cls-13" points="224.33 411.29 222.56 404.2 222.85 404.13 224.62 411.21 224.33 411.29"/><rect class="cls-13" x="238.79" y="383.53" width="7.3" height="0.3" transform="translate(-139.73 138.87) rotate(-25.07)"/><rect class="cls-13" x="240.29" y="386.78" width="7.43" height="0.3" transform="translate(-165.66 183.4) rotate(-31.34)"/><rect class="cls-13" x="211.11" y="389.55" width="0.3" height="7.02" transform="translate(-87.62 61.7) rotate(-13.79)"/><rect class="cls-13" x="213.94" y="387.02" width="0.3" height="7.3" transform="translate(-150.95 135.32) rotate(-26.3)"/><rect class="cls-13" x="224.83" y="394.55" width="7.46" height="0.3" transform="translate(-227.49 401.33) rotate(-60.76)"/><rect class="cls-13" x="227.32" y="395.48" width="7.3" height="0.3" transform="translate(-226.02 363.4) rotate(-55.69)"/><polygon class="cls-13" points="236.47 395.77 236.36 395.49 242.89 392.88 243 393.16 236.47 395.77"/><rect class="cls-13" x="236.9" y="397.55" width="6.56" height="0.3" transform="translate(-15.45 9.75) rotate(-2.25)"/><rect class="cls-13" x="244.76" y="397.76" width="6.85" height="0.3" transform="translate(-200.24 535.19) rotate(-75.07)"/><polygon class="cls-13" points="248.34 403.51 248.07 403.37 251.7 397.03 251.96 397.18 248.34 403.51"/><rect class="cls-13" x="243.13" y="431.82" width="7.3" height="0.3" transform="translate(-160.21 145.86) rotate(-25.15)"/><rect class="cls-13" x="244.83" y="435.44" width="7.3" height="0.3" transform="translate(-161.5 146.81) rotate(-25.14)"/><rect class="cls-13" x="237.78" y="408.61" width="0.3" height="6.67" transform="translate(-214.07 263.61) rotate(-41.82)"/><polygon class="cls-13" points="237.32 415.29 237.21 415.19 232.28 410.68 232.48 410.46 232.59 410.56 237.52 415.06 237.32 415.29"/><rect class="cls-13" x="221.98" y="413.92" width="6.68" height="0.3" transform="translate(-239.16 333.55) rotate(-51.61)"/><polygon class="cls-13" points="225.77 419.98 225.53 419.81 230.02 413.62 230.27 413.79 225.77 419.98"/><rect class="cls-13" x="211.6" y="404.83" width="0.3" height="7.3" transform="translate(-216.95 575.52) rotate(-83.89)"/><rect class="cls-13" x="210.74" y="407.69" width="0.3" height="7.3" transform="translate(-235.51 531.36) rotate(-77.91)"/><rect class="cls-13" x="202.21" y="412.52" width="0.3" height="7.3" transform="translate(-252 328.38) rotate(-53.13)"/><rect class="cls-13" x="204.61" y="409.33" width="0.3" height="7.3" transform="translate(-248.46 328.9) rotate(-53.12)"/><rect class="cls-13" x="202.86" y="430.15" width="7.3" height="0.3" transform="translate(-239.17 601.11) rotate(-85.33)"/><polygon class="cls-13" points="209.74 434.91 209.45 434.88 210.43 427.16 210.72 427.19 209.74 434.91"/><rect class="cls-13" x="215.3" y="416.48" width="0.3" height="7.3" transform="translate(-233.96 275.36) rotate(-44.99)"/><rect class="cls-13" x="218.13" y="413.65" width="0.3" height="7.3" transform="translate(-231.14 276.57) rotate(-45)"/><rect class="cls-13" x="195.77" y="425.53" width="6.51" height="0.3" transform="translate(-235.72 247.32) rotate(-42.64)"/><polygon class="cls-13" points="198.03 430.54 197.85 430.3 203.61 425.82 203.79 426.05 198.03 430.54"/><rect class="cls-13" x="248.76" y="391.46" width="7.3" height="0.3" transform="translate(-32.86 23.25) rotate(-4.95)"/><rect class="cls-13" x="248.85" y="387.8" width="6.92" height="0.3" transform="matrix(0.98, -0.19, 0.19, 0.98, -68.71, 54.62)"/><rect class="cls-13" x="229.28" y="400.4" width="0.3" height="7.34" transform="translate(-41.73 26.73) rotate(-6.11)"/><rect class="cls-13" x="229.9" y="403.17" width="5.82" height="0.3" transform="translate(-190.09 598.33) rotate(-84.76)"/><rect class="cls-13" x="200.32" y="380.77" width="6.04" height="0.3" transform="matrix(0.5, -0.87, 0.87, 0.5, -228.21, 366.34)"/><rect class="cls-13" x="198.49" y="407.41" width="7.3" height="0.3" transform="translate(-195.98 187.42) rotate(-34.68)"/><polygon class="cls-13" points="196.95 406.47 196.78 406.23 202.78 402.07 202.95 402.31 196.95 406.47"/><rect class="cls-13" x="198.98" y="434.49" width="0.3" height="6.4" transform="translate(-253.04 274.08) rotate(-45.65)"/><polygon class="cls-13" points="203.32 437.54 199.16 433.9 199.36 433.67 203.52 437.31 203.32 437.54"/><polygon class="cls-13" points="257.85 405.3 253.35 399.55 253.58 399.36 258.09 405.11 257.85 405.3"/><polygon class="cls-13" points="260.5 403.08 256 397.33 256.23 397.15 260.73 402.89 260.5 403.08"/><polygon class="cls-13" points="244.42 407.89 244.34 407.6 244.49 407.56 251.41 405.77 251.49 406.06 251.34 406.1 244.42 407.89"/><polygon class="cls-13" points="245.42 411.76 245.35 411.47 245.49 411.44 252.41 409.64 252.49 409.93 252.34 409.97 245.42 411.76"/><polygon class="cls-13" points="208.7 396.98 208.55 396.97 201.49 396.54 201.51 396.24 201.66 396.25 208.72 396.68 208.7 396.98"/><polygon class="cls-13" points="201.97 400.54 201.94 400.24 202.09 400.22 209.19 399.41 209.22 399.71 209.07 399.72 201.97 400.54"/><polygon class="cls-13" points="256.96 439.03 252.86 432.99 253.11 432.82 257.2 438.86 256.96 439.03"/><polygon class="cls-13" points="260.27 436.78 256.17 430.74 256.42 430.57 260.51 436.62 260.27 436.78"/><rect class="cls-13" x="251.7" y="410.09" width="6.01" height="0.3" transform="translate(-222.56 336.78) rotate(-49.42)"/><polygon class="cls-13" points="256.29 414.73 256.04 414.57 259.89 408.37 260.15 408.53 256.29 414.73"/><polygon class="cls-13" points="254.8 443.43 254.62 443.19 260.38 438.71 260.56 438.94 254.8 443.43"/><rect class="cls-13" x="250.28" y="440.16" width="0.3" height="7.59" transform="translate(-148.99 127.29) rotate(-22.17)"/><polygon class="cls-13" points="262.99 391.31 256.55 387.89 256.69 387.62 263.13 391.05 262.99 391.31"/><polygon class="cls-13" points="209.34 387 209.18 386.75 213.86 383.87 214.01 384.12 209.34 387"/><rect class="cls-13" x="206.17" y="382.78" width="7.3" height="0.3" transform="translate(-141.26 123.31) rotate(-24.8)"/><rect class="cls-13" x="231.16" y="384.32" width="0.3" height="7.02" transform="translate(-206.49 277.15) rotate(-45)"/><polygon class="cls-13" points="236.37 388.7 231.87 382.96 232.11 382.77 236.61 388.52 236.37 388.7"/><polygon class="cls-13" points="255.24 419.52 255.11 419.25 255.24 419.19 260.61 416.61 260.74 416.88 260.6 416.94 255.24 419.52"/><rect class="cls-13" x="256.66" y="420.96" width="7.3" height="0.3" transform="translate(-172.53 180.81) rotate(-29.24)"/><polygon class="cls-13" points="224.18 381.5 222.63 381.19 222.69 380.9 224.23 381.21 224.18 381.5"/><rect class="cls-13" x="221.78" y="383.15" width="0.3" height="1.09" transform="translate(-110.07 90.01) rotate(-18.46)"/><rect class="cls-13" x="226.58" y="389.17" width="1.2" height="0.3" transform="translate(-177.71 191.22) rotate(-33.66)"/><rect class="cls-13" x="237.66" y="387.17" width="1.55" height="0.3"/><rect class="cls-13" x="244.78" y="391.52" width="0.3" height="1.36" transform="translate(-205.59 288.07) rotate(-45)"/><rect class="cls-13" x="253.25" y="394.8" width="1.36" height="0.3" transform="translate(-204.9 295.24) rotate(-45)"/><rect class="cls-13" x="254.1" y="383.42" width="1.42" height="0.3" transform="translate(-202.18 440.28) rotate(-63.48)"/><rect class="cls-13" x="199.03" y="390.47" width="0.3" height="1.2" transform="translate(-236.71 339.98) rotate(-56.32)"/><rect class="cls-13" x="204.91" y="407.92" width="0.3" height="1.05"/><rect class="cls-13" x="196.66" y="411.92" width="1.8" height="0.3"/><rect class="cls-13" x="201.98" y="431.05" width="1.65" height="0.3" transform="translate(-272.87 459.39) rotate(-68.2)"/><rect class="cls-13" x="210.53" y="413.8" width="0.3" height="1.55" transform="translate(-206.61 209.32) rotate(-36.87)"/><rect class="cls-13" x="241.75" y="411.05" width="1.36" height="0.3" transform="translate(-219.76 291.87) rotate(-45)"/><rect class="cls-13" x="232.19" y="414.12" width="0.3" height="1.42" transform="translate(-160.99 147.7) rotate(-26.57)"/><rect class="cls-13" x="218" y="395.55" width="1.36" height="0.3" transform="translate(-215.75 270.53) rotate(-45)"/><polygon class="cls-13" points="217.36 406.03 215.85 405.13 216.01 404.87 217.51 405.77 217.36 406.03"/><polygon class="cls-13" points="201.93 443.5 201.63 443.45 201.93 441.65 202.23 441.7 201.93 443.5"/><rect class="cls-13" x="230.66" y="409.63" width="0.3" height="1.65" transform="translate(-135.86 114.99) rotate(-21.79)"/><polygon class="cls-13" points="254.8 378.18 254.62 377.94 260.38 373.46 260.56 373.69 254.8 378.18"/><polygon class="cls-13" points="257.25 381.33 257.07 381.1 262.83 376.61 263.02 376.85 257.25 381.33"/><polygon class="cls-13" points="236.35 380.28 236.1 380.12 236.18 379.99 239.96 374.39 240.2 374.56 240.12 374.69 236.35 380.28"/><rect class="cls-13" x="236.54" y="379.76" width="7.3" height="0.3" transform="translate(-194.98 267.42) rotate(-43.2)"/><polygon class="cls-13" points="248.22 382.52 245.74 376.46 246.02 376.35 248.5 382.41 248.22 382.52"/><rect class="cls-13" x="250.28" y="374.91" width="0.3" height="7.59" transform="translate(-124.37 122.47) rotate(-22.17)"/><polygon class="cls-13" points="215.09 380.42 214.9 380.18 220.83 375.62 221.02 375.85 215.09 380.42"/><rect class="cls-13" x="216.79" y="379.7" width="9.32" height="0.3" transform="translate(-197.34 245.92) rotate(-42.02)"/><polygon class="cls-13" points="201.93 378.25 201.63 378.2 201.93 376.4 202.23 376.45 201.93 378.25"/><rect class="cls-13" x="209.02" y="373.9" width="0.3" height="7.53" transform="translate(-182.91 196.96) rotate(-36.28)"/><rect class="cls-13" x="211.85" y="371.07" width="0.3" height="7.53" transform="translate(-180.72 198.15) rotate(-36.28)"/><rect class="cls-13" x="251.44" y="436.63" width="0.3" height="1.65" transform="translate(-144.41 124.65) rotate(-21.79)"/><polygon class="cls-13" points="231.92 381.49 231.4 374.69 231.69 374.66 232.22 381.46 231.92 381.49"/><polygon class="cls-13" points="227.42 381 227.13 380.94 228.69 373.9 228.99 373.96 227.42 381"/><rect class="cls-13" x="238.78" y="390.77" width="0.3" height="1.36" transform="translate(-206.82 283.6) rotate(-45)"/><polygon class="cls-13" points="226.93 403.25 225.38 402.94 225.44 402.65 226.98 402.96 226.93 403.25"/><rect class="cls-13" x="256" y="427.8" width="1.36" height="0.3" transform="translate(-227.43 306.85) rotate(-45)"/><rect class="cls-13" x="196.45" y="381.09" width="5.81" height="0.3" transform="translate(-223.54 302.21) rotate(-51.81)"/><polygon class="cls-13" points="255.68 416 254.13 415.69 254.19 415.4 255.73 415.71 255.68 416"/><rect class="cls-13" x="216.41" y="386.92" width="0.3" height="1.55" transform="translate(-223.54 328.36) rotate(-53.13)"/><polygon class="cls-13" points="229.19 383.25 228.88 381.71 229.18 381.65 229.48 383.19 229.19 383.25"/><rect class="cls-13" x="203.12" y="384.92" width="1.88" height="0.3" transform="translate(-225.77 456.98) rotate(-71.58)"/><path class="cls-13" d="M196.06,381.45a.4.4,0,0,1-.27-.12.36.36,0,0,1-.11-.26.4.4,0,0,1,.12-.27.38.38,0,0,1,.64.27.36.36,0,0,1-.11.26A.4.4,0,0,1,196.06,381.45Z"/><path class="cls-13" d="M199.06,384.7a.38.38,0,0,1-.37-.38.39.39,0,0,1,.11-.27.4.4,0,0,1,.53,0,.39.39,0,0,1,.11.26.4.4,0,0,1-.12.27A.39.39,0,0,1,199.06,384.7Z"/><path class="cls-13" d="M205.81,379.2a.39.39,0,0,1-.27-.11.39.39,0,0,1-.1-.27.37.37,0,0,1,.64-.26.38.38,0,0,1,.1.26.38.38,0,0,1-.37.38Z"/><path class="cls-13" d="M216.06,386.2a.4.4,0,0,1-.27-.12.36.36,0,0,1-.11-.26.38.38,0,0,1,.65-.26.39.39,0,0,1,.11.26.4.4,0,0,1-.11.27A.44.44,0,0,1,216.06,386.2Z"/><path class="cls-13" d="M209.81,393a.4.4,0,0,1-.27-.12.41.41,0,0,1-.11-.26.4.4,0,0,1,.12-.27.37.37,0,0,1,.63.27.43.43,0,0,1-.1.27A.4.4,0,0,1,209.81,393Z"/><path class="cls-13" d="M207.31,402.69a.39.39,0,0,1-.27-.11.41.41,0,0,1-.11-.26.38.38,0,0,1,.65-.26.35.35,0,0,1,.11.26.38.38,0,0,1-.38.37Z"/><path class="cls-13" d="M196.56,401.7a.38.38,0,0,1-.38-.38.44.44,0,0,1,.11-.27.41.41,0,0,1,.54,0,.44.44,0,0,1,.11.27.36.36,0,0,1-.11.26A.36.36,0,0,1,196.56,401.7Z"/><path class="cls-13" d="M213.31,413.7a.37.37,0,0,1-.27-.12.38.38,0,0,1-.1-.26.35.35,0,0,1,.11-.27.37.37,0,0,1,.52,0,.38.38,0,0,1-.26.65Z"/><path class="cls-13" d="M218.56,409.45a.37.37,0,0,1-.27-.12.4.4,0,0,1,0-.53.41.41,0,0,1,.54,0,.43.43,0,0,1,.1.27.38.38,0,0,1-.37.38Z"/><path class="cls-13" d="M226.31,401a.38.38,0,0,1-.38-.38.39.39,0,0,1,.11-.27.4.4,0,0,1,.54,0,.35.35,0,0,1,.11.26.36.36,0,0,1-.11.26A.37.37,0,0,1,226.31,401Z"/><path class="cls-13" d="M220.81,417.94a.34.34,0,0,1-.37-.37.39.39,0,0,1,.11-.27.4.4,0,0,1,.52,0,.39.39,0,0,1,.11.27.35.35,0,0,1-.1.26A.36.36,0,0,1,220.81,417.94Z"/><path class="cls-13" d="M225.56,420.7a.4.4,0,0,1-.27-.12.39.39,0,0,1-.11-.26.42.42,0,0,1,.12-.27.38.38,0,0,1,.64.27.4.4,0,0,1-.12.27A.39.39,0,0,1,225.56,420.7Z"/><path class="cls-13" d="M211.56,425a.37.37,0,0,1-.27-.12.38.38,0,0,1-.1-.26.35.35,0,0,1,.11-.27.37.37,0,0,1,.52,0,.35.35,0,0,1,.11.27.38.38,0,0,1-.37.38Z"/><path class="cls-13" d="M234.81,402.45a.4.4,0,0,1-.27-.12.38.38,0,0,1-.1-.26.43.43,0,0,1,.1-.27.4.4,0,0,1,.53,0,.39.39,0,0,1,0,.54A.36.36,0,0,1,234.81,402.45Z"/><path class="cls-13" d="M234.56,394a.4.4,0,0,1-.27-.12.38.38,0,0,1-.1-.26.39.39,0,0,1,.11-.27.4.4,0,0,1,.53,0,.44.44,0,0,1,.11.27.4.4,0,0,1-.12.27A.36.36,0,0,1,234.56,394Z"/><path class="cls-13" d="M251.06,385.2a.4.4,0,0,1-.27-.12.36.36,0,0,1-.11-.26.4.4,0,0,1,.12-.27.41.41,0,0,1,.53,0,.44.44,0,0,1,.11.27.36.36,0,0,1-.11.26A.37.37,0,0,1,251.06,385.2Z"/><path class="cls-13" d="M243.06,381.69a.39.39,0,0,1-.27-.1.38.38,0,0,1-.1-.27.35.35,0,0,1,.11-.27.38.38,0,0,1,.52,0,.36.36,0,0,1,.12.27.4.4,0,0,1-.11.27A.38.38,0,0,1,243.06,381.69Z"/><path class="cls-13" d="M253.81,405a.38.38,0,0,1-.37-.38.38.38,0,0,1,.75,0,.36.36,0,0,1-.11.26A.37.37,0,0,1,253.81,405Z"/><path class="cls-13" d="M252.31,416a.36.36,0,0,1-.26-.11.39.39,0,0,1,0-.54.41.41,0,0,1,.53,0,.43.43,0,0,1,.1.27.39.39,0,0,1-.11.27A.36.36,0,0,1,252.31,416Z"/><path class="cls-13" d="M246.81,422.7a.4.4,0,0,1-.27-.12.4.4,0,0,1,0-.53.4.4,0,0,1,.53,0,.37.37,0,0,1,.12.27.44.44,0,0,1-.11.27A.39.39,0,0,1,246.81,422.7Z"/><path class="cls-13" d="M250.31,432.7a.39.39,0,0,1-.27-.11.43.43,0,0,1-.1-.27.37.37,0,0,1,.64-.26.38.38,0,0,1,.1.26.39.39,0,0,1-.11.27A.36.36,0,0,1,250.31,432.7Z"/><path class="cls-13" d="M242.81,437.45a.4.4,0,0,1-.27-.12.38.38,0,0,1-.1-.26.39.39,0,0,1,.11-.27.4.4,0,0,1,.53,0,.39.39,0,0,1,.11.26.4.4,0,0,1-.12.27A.39.39,0,0,1,242.81,437.45Z"/><path class="cls-13" d="M221.31,438.7a.4.4,0,0,1-.27-.12.38.38,0,0,1-.1-.26.38.38,0,0,1,.75,0,.4.4,0,0,1-.12.27A.39.39,0,0,1,221.31,438.7Z"/><path class="cls-13" d="M232.31,441.19a.39.39,0,0,1-.27-.1.4.4,0,0,1-.11-.27.36.36,0,0,1,.11-.26.4.4,0,0,1,.53,0,.39.39,0,0,1,0,.54A.4.4,0,0,1,232.31,441.19Z"/><path class="cls-13" d="M218.06,393.45a.4.4,0,0,1-.27-.12.39.39,0,0,1-.11-.26.38.38,0,0,1,.65-.26.38.38,0,0,1,.1.26.39.39,0,0,1-.11.27A.35.35,0,0,1,218.06,393.45Z"/><path class="cls-13" d="M203.56,440.44a.39.39,0,0,1-.27-.11.38.38,0,0,1-.1-.26.38.38,0,0,1,.75,0,.4.4,0,0,1-.12.27A.38.38,0,0,1,203.56,440.44Z"/><path class="cls-13" d="M193.56,429.19a.39.39,0,0,1-.27-.1.43.43,0,0,1-.1-.27.35.35,0,0,1,.1-.26.39.39,0,0,1,.54,0,.34.34,0,0,1,.1.26.39.39,0,0,1-.11.27A.38.38,0,0,1,193.56,429.19Z"/><path class="cls-13" d="M196.56,422a.36.36,0,0,1-.26-.11.39.39,0,0,1-.11-.27.35.35,0,0,1,.11-.27.4.4,0,0,1,.53,0,.38.38,0,0,1,.1.27.39.39,0,0,1-.11.27A.36.36,0,0,1,196.56,422Z"/><path class="cls-13" d="M201.81,418.19a.36.36,0,0,1-.38-.37.36.36,0,0,1,.11-.26.38.38,0,0,1,.65.26.36.36,0,0,1-.11.26A.39.39,0,0,1,201.81,418.19Z"/><path class="cls-13" d="M202.56,422a.38.38,0,0,1-.38-.38.36.36,0,0,1,.11-.26.39.39,0,0,1,.54,0,.36.36,0,0,1,.11.26.4.4,0,0,1-.12.27A.39.39,0,0,1,202.56,422Z"/><path class="cls-13" d="M243.56,400.2a.4.4,0,0,1-.27-.12.38.38,0,0,1-.1-.26.43.43,0,0,1,.1-.27.41.41,0,0,1,.54,0,.43.43,0,0,1,.1.27.38.38,0,0,1-.37.38Z"/><path class="cls-13" d="M240.81,409.94a.39.39,0,0,1-.27-.11.41.41,0,0,1-.11-.26.4.4,0,0,1,.12-.27.38.38,0,0,1,.64.27.36.36,0,0,1-.11.26A.39.39,0,0,1,240.81,409.94Z"/><path class="cls-13" d="M239.06,418.19a.34.34,0,0,1-.37-.37.37.37,0,1,1,.74,0,.35.35,0,0,1-.1.26A.36.36,0,0,1,239.06,418.19Z"/><path class="cls-13" d="M220.56,402.45a.4.4,0,0,1-.27-.12.39.39,0,0,1-.11-.26.42.42,0,0,1,.12-.27.4.4,0,0,1,.53,0,.39.39,0,0,1,.11.27.4.4,0,0,1-.12.27A.35.35,0,0,1,220.56,402.45Z"/><path class="cls-13" d="M217.06,433.2a.4.4,0,0,1-.27-.12.38.38,0,0,1-.1-.26.35.35,0,0,1,.1-.26.41.41,0,0,1,.54,0,.43.43,0,0,1,.1.27.38.38,0,0,1-.37.38Z"/><path class="cls-13" d="M217.06,441.19a.38.38,0,0,1-.38-.37.38.38,0,0,1,.65-.26.38.38,0,0,1,.1.26.39.39,0,0,1-.11.27A.38.38,0,0,1,217.06,441.19Z"/><path class="cls-13" d="M211.69,437.2a.34.34,0,0,1-.27-.12.35.35,0,0,1-.11-.26.36.36,0,0,1,.11-.26.4.4,0,0,1,.53,0,.39.39,0,0,1,0,.54A.43.43,0,0,1,211.69,437.2Z"/><path class="cls-13" d="M219.44,414.7a.36.36,0,0,1-.27-.12.35.35,0,0,1-.11-.26.37.37,0,0,1,.64-.26.36.36,0,0,1,.11.26.39.39,0,0,1-.11.27A.41.41,0,0,1,219.44,414.7Z"/><path class="cls-13" d="M253.81,439.7a.4.4,0,0,1-.27-.11.43.43,0,0,1-.1-.27.39.39,0,0,1,.11-.27.37.37,0,1,1,.52.54A.36.36,0,0,1,253.81,439.7Z"/><path class="cls-13" d="M197.31,433.7a.39.39,0,0,1-.27-.11.4.4,0,0,1-.11-.27.36.36,0,0,1,.11-.26.37.37,0,0,1,.64.26.38.38,0,0,1-.37.38Z"/><path class="cls-13" d="M226.56,407.45a.36.36,0,0,1-.26-.11.37.37,0,1,1,.52,0A.36.36,0,0,1,226.56,407.45Z"/><path class="cls-13" d="M226.06,392.45a.36.36,0,0,1-.26-.11.39.39,0,0,1,0-.54.4.4,0,0,1,.53,0,.39.39,0,0,1,.11.26.4.4,0,0,1-.12.27A.39.39,0,0,1,226.06,392.45Z"/><path class="cls-13" d="M227.31,385.7a.4.4,0,0,1-.27-.11.39.39,0,0,1-.1-.27.38.38,0,0,1,.1-.27.41.41,0,0,1,.54,0,.43.43,0,0,1,.1.27.39.39,0,0,1-.1.27A.4.4,0,0,1,227.31,385.7Z"/><path class="cls-13" d="M242.56,433.45a.4.4,0,0,1-.27-.11.39.39,0,0,1-.1-.27.35.35,0,0,1,.1-.26.38.38,0,0,1,.53,0,.36.36,0,0,1,.11.27.39.39,0,0,1-.11.27A.36.36,0,0,1,242.56,433.45Z"/><path class="cls-13" d="M241.81,422.45a.4.4,0,0,1-.27-.12.38.38,0,0,1-.1-.26.39.39,0,0,1,.11-.27.4.4,0,0,1,.53,0,.4.4,0,0,1,.11.27.36.36,0,0,1-.11.26A.37.37,0,0,1,241.81,422.45Z"/><path class="cls-13" d="M255.56,425a.4.4,0,0,1-.27-.12.4.4,0,0,1,0-.53.4.4,0,0,1,.54,0,.38.38,0,0,1,.1.26.38.38,0,0,1-.37.38Z"/><path class="cls-13" d="M245.06,395.2a.38.38,0,0,1-.37-.38.39.39,0,0,1,.11-.27.4.4,0,0,1,.53,0,.39.39,0,0,1,.11.26.36.36,0,0,1-.11.26A.4.4,0,0,1,245.06,395.2Z"/><path class="cls-13" d="M245.81,397a.36.36,0,0,1-.26-.11.39.39,0,0,1,0-.54.4.4,0,0,1,.53,0,.39.39,0,0,1,.11.26.4.4,0,0,1-.12.27A.36.36,0,0,1,245.81,397Z"/><path class="cls-13" d="M246.06,388.2a.4.4,0,0,1-.27-.12.36.36,0,0,1-.11-.26.4.4,0,0,1,.12-.27.41.41,0,0,1,.53,0,.44.44,0,0,1,.11.27.37.37,0,0,1-.12.27A.36.36,0,0,1,246.06,388.2Z"/><path class="cls-13" d="M232.81,397.45a.4.4,0,0,1-.27-.12.38.38,0,0,1-.1-.26.39.39,0,0,1,.11-.27.4.4,0,0,1,.53,0,.38.38,0,0,1,.1.26.39.39,0,0,1-.11.27A.36.36,0,0,1,232.81,397.45Z"/><path class="cls-13" d="M241.81,405a.39.39,0,0,1-.27-.11.41.41,0,0,1-.1-.27.38.38,0,0,1,.1-.27.39.39,0,0,1,.65.27.37.37,0,0,1-.12.26A.36.36,0,0,1,241.81,405Z"/><path class="cls-13" d="M252.31,401.7a.39.39,0,0,1-.27-.11.39.39,0,0,1-.1-.27.37.37,0,0,1,.64-.27.44.44,0,0,1,.11.27.36.36,0,0,1-.11.26A.36.36,0,0,1,252.31,401.7Z"/><path class="cls-13" d="M253.81,408.94a.39.39,0,0,1-.27-.11.38.38,0,0,1-.1-.26.37.37,0,1,1,.63.27A.35.35,0,0,1,253.81,408.94Z"/><path class="cls-13" d="M193.81,394a.39.39,0,0,1-.27-.11.43.43,0,0,1-.1-.27.39.39,0,0,1,.11-.27.4.4,0,0,1,.53,0,.39.39,0,0,1,.11.26.42.42,0,0,1-.12.27A.39.39,0,0,1,193.81,394Z"/><polygon class="cls-13" points="192.6 405.3 188.1 399.55 188.33 399.36 192.84 405.11 192.6 405.3"/><polygon class="cls-13" points="195.25 403.08 190.75 397.33 190.98 397.15 195.48 402.89 195.25 403.08"/><polygon class="cls-13" points="195.02 436.78 190.92 430.74 191.16 430.57 195.26 436.62 195.02 436.78"/><polygon class="cls-13" points="191.04 414.73 190.79 414.57 194.64 408.37 194.9 408.53 191.04 414.73"/><polygon class="cls-13" points="189.55 443.43 189.37 443.19 195.13 438.71 195.31 438.94 189.55 443.43"/><polygon class="cls-13" points="197.74 391.31 191.3 387.89 191.44 387.62 197.88 391.05 197.74 391.31"/><polygon class="cls-13" points="189.99 419.52 189.86 419.25 189.99 419.19 195.36 416.61 195.49 416.88 195.35 416.94 189.99 419.52"/><rect class="cls-13" x="191.41" y="420.96" width="7.3" height="0.3" transform="translate(-180.84 148.94) rotate(-29.24)"/><polygon class="cls-13" points="189.55 378.18 189.37 377.94 195.13 373.46 195.31 373.69 189.55 378.18"/><polygon class="cls-13" points="192 381.33 191.82 381.1 197.58 376.61 197.77 376.85 192 381.33"/><rect class="cls-13" x="209.02" y="373.9" width="0.3" height="7.53" transform="translate(-182.91 196.96) rotate(-36.28)"/><rect class="cls-13" x="211.85" y="371.07" width="0.3" height="7.53" transform="translate(-180.72 198.15) rotate(-36.28)"/><polygon class="cls-13" points="236.35 380.28 236.1 380.12 236.18 379.99 239.96 374.39 240.2 374.56 240.12 374.69 236.35 380.28"/><rect class="cls-13" x="236.54" y="379.76" width="7.3" height="0.3" transform="translate(-194.98 267.42) rotate(-43.2)"/><polygon class="cls-13" points="248.22 382.52 245.74 376.46 246.02 376.35 248.5 382.41 248.22 382.52"/><polygon class="cls-13" points="215.09 380.42 214.9 380.18 220.83 375.62 221.02 375.85 215.09 380.42"/><rect class="cls-13" x="216.79" y="379.7" width="9.32" height="0.3" transform="translate(-197.34 245.92) rotate(-42.02)"/><polygon class="cls-13" points="231.92 381.49 231.4 374.69 231.69 374.66 232.22 381.46 231.92 381.49"/><polygon class="cls-13" points="227.42 381 227.13 380.94 228.69 373.9 228.99 373.96 227.42 381"/><polygon class="cls-13" points="254.8 378.18 254.62 377.94 260.38 373.46 260.56 373.69 254.8 378.18"/><rect class="cls-13" x="250.28" y="374.91" width="0.3" height="7.59" transform="translate(-124.37 122.47) rotate(-22.17)"/><polygon class="cls-13" points="201.93 378.25 201.63 378.2 201.93 376.4 202.23 376.45 201.93 378.25"/><polygon class="cls-13" points="189.55 378.18 189.37 377.94 195.13 373.46 195.31 373.69 189.55 378.18"/></g></g><path class="cls-8" d="M199.34,387.41a.48.48,0,0,1-.2,0l-1.33-.56a.49.49,0,0,1-.3-.46.43.43,0,0,1,0-.19.51.51,0,0,1,.65-.27l1.33.56a.5.5,0,0,1,.31.46.65.65,0,0,1,0,.19A.51.51,0,0,1,199.34,387.41Z"/><path class="cls-8" d="M191.94,409.14a.5.5,0,0,1-.43-.23.47.47,0,0,1,.1-.65c5.53-4.18,8.09-11.74,7.23-21.31a.48.48,0,0,1,.2-.44l11-8.14a.5.5,0,0,1,.5-.06.51.51,0,0,1,.3.41c.94,10.42-3.17,20.12-10.72,25.32-.77.52-7.23,4.71-7.92,5A.53.53,0,0,1,191.94,409.14Zm7.92-22c.65,7.74-.91,14.22-4.44,18.74,1.78-1.13,3.62-2.32,4.11-2.66,7-4.85,11-13.8,10.36-23.51Z"/><polygon class="cls-9" points="133.51 359.39 136.08 360.46 133.51 359.39 133.51 359.39"/><path class="cls-9" d="M177.13,390.42c-14.17-5.93-27.33-22.74-30.06-38.1l-11,8.14c2.74,15.36,15.89,32.17,30.06,38.1,10.53,4.4,18.8,1.62,21.9-6.12A23.15,23.15,0,0,1,177.13,390.42Z"/><polygon class="cls-7" points="133.51 359.39 136.08 360.46 133.51 359.39 133.51 359.39"/><path class="cls-7" d="M177.13,390.42c-14.17-5.93-27.33-22.74-30.06-38.1l-11,8.14c2.74,15.36,15.89,32.17,30.06,38.1,10.53,4.4,18.8,1.62,21.9-6.12A23.15,23.15,0,0,1,177.13,390.42Z"/><polygon class="cls-14" points="133.51 359.39 136.08 360.46 133.51 359.39 133.51 359.39"/><path class="cls-14" d="M177.13,390.42c-14.17-5.93-27.33-22.74-30.06-38.1l-11,8.14c2.74,15.36,15.89,32.17,30.06,38.1,10.53,4.4,18.8,1.62,21.9-6.12A23.15,23.15,0,0,1,177.13,390.42Z"/></g><g id="graph"><path class="cls-6" d="M495.82,459.27c2.87-22.57,45-5.19,65.9-23.64,21.69-19.11,39.16-35.54,55.09-25.08,13.62,8.93,13.79,51.52-31,72.54C551,499.43,492.32,486.79,495.82,459.27Z"/><rect class="cls-9" x="277.5" y="96.48" width="361.49" height="228.36"/><path class="cls-8" d="M639,325.34H277.5a.5.5,0,0,1-.5-.5V96.48a.5.5,0,0,1,.5-.5H639a.5.5,0,0,1,.5.5V324.84A.5.5,0,0,1,639,325.34Zm-361-1H638.49V97H278Z"/><rect class="cls-9" x="592.35" y="112.6" width="121.86" height="149.79"/><path class="cls-8" d="M714.22,262.89H592.35a.5.5,0,0,1-.5-.5V112.6a.5.5,0,0,1,.5-.5H714.22a.51.51,0,0,1,.5.5V262.39A.51.51,0,0,1,714.22,262.89Zm-121.37-1H713.72V113.1H592.85Z"/><rect class="cls-8" x="587.4" y="107.65" width="9.91" height="9.91"/><rect class="cls-8" x="709.26" y="107.65" width="9.91" height="9.91"/><rect class="cls-8" x="587.4" y="257.43" width="9.91" height="9.91"/><rect class="cls-8" x="709.26" y="257.43" width="9.91" height="9.91"/><rect class="cls-8" x="634.03" y="318.77" width="9.91" height="9.91"/><rect class="cls-8" x="634.03" y="91.53" width="9.91" height="9.91"/><rect class="cls-8" x="272.55" y="91.53" width="9.91" height="9.91"/><rect class="cls-8" x="272.55" y="318.77" width="9.91" height="9.91"/><path class="cls-6" d="M668.63,228.9c18.27-14.31,30.44-44.54,27.19-67.52s-20.72-30-39-15.7-30.44,44.55-27.18,67.53S650.36,243.21,668.63,228.9ZM648.4,198.52c-1.41-10,3.86-23.05,11.78-29.25s15.47-3.15,16.88,6.8-3.86,23.05-11.77,29.24S649.81,208.47,648.4,198.52Z"/><path class="cls-9" d="M649.74,227.17c18.27-14.32,30.44-44.55,27.18-67.53s-20.71-30-39-15.69-30.45,44.54-27.19,67.52S631.46,241.48,649.74,227.17Zm-20.23-30.39c-1.41-9.95,3.86-23.05,11.77-29.24s15.47-3.16,16.89,6.79-3.86,23-11.78,29.25S630.92,206.73,629.51,196.78Z"/><path class="cls-8" d="M631.38,235.08h0c-11.14,0-19-8.8-21.12-23.54-3.28-23.1,9-53.6,27.37-68,6.28-4.92,12.73-7.52,18.66-7.52,11.14,0,19,8.8,21.13,23.54,3.27,23.1-9,53.6-27.38,68C643.76,232.48,637.31,235.08,631.38,235.08ZM656.29,137c-5.7,0-11.94,2.53-18,7.31-18.12,14.19-30.24,44.27-27,67.06,2,14.2,9.54,22.68,20.13,22.68,5.7,0,11.94-2.53,18-7.31,18.12-14.19,30.23-44.27,27-67.06C674.41,145.51,666.88,137,656.29,137Zm-17.85,70.26c-5,0-8.5-3.9-9.43-10.44-1.43-10.09,3.94-23.42,12-29.71a13.76,13.76,0,0,1,8.26-3.32c5,0,8.5,3.91,9.43,10.44,1.43,10.1-3.93,23.43-12,29.71A13.76,13.76,0,0,1,638.44,207.29Zm10.79-42.47a12.79,12.79,0,0,0-7.64,3.11c-7.78,6.09-13,19-11.59,28.78.85,6,4,9.58,8.44,9.58a12.75,12.75,0,0,0,7.64-3.1c7.78-6.1,13-19,11.59-28.79C656.82,168.41,653.67,164.82,649.23,164.82Z"/><path class="cls-15" d="M662.18,137.54l0,0,.51.2Z"/><path class="cls-15" d="M623.79,232.89c.28.13.54.3.82.41l-.85-.34Z"/><path class="cls-7" d="M629.51,196.78c-1.41-9.95,3.86-23.05,11.77-29.24,6.11-4.79,12-4,15,1.11a15.31,15.31,0,0,0-5.28,2.81c-7.92,6.19-13.19,19.29-11.78,29.24a15.44,15.44,0,0,0,1.87,5.68C635.36,208,630.6,204.47,629.51,196.78Z"/><path class="cls-8" d="M638.44,207.27c-5,0-8.5-3.9-9.43-10.42-1.43-10.09,3.94-23.42,12-29.71a13.77,13.77,0,0,1,8.24-3.31,8.55,8.55,0,0,1,7.52,4.57l.33.56-.63.17a15.25,15.25,0,0,0-5.11,2.72c-7.77,6.09-13,19-11.58,28.78a14.92,14.92,0,0,0,1.8,5.5l.33.56-.63.17A10.31,10.31,0,0,1,638.44,207.27Zm10.77-42.44a12.72,12.72,0,0,0-7.62,3.1c-7.78,6.09-13,19-11.59,28.78.85,6,4,9.56,8.44,9.56a8.64,8.64,0,0,0,1.92-.22,16.34,16.34,0,0,1-1.61-5.28c-1.43-10.09,3.93-23.42,12-29.71a16.42,16.42,0,0,1,4.82-2.69A7.37,7.37,0,0,0,649.21,164.83Z"/><path class="cls-8" d="M641.19,239a19,19,0,0,1-5.66-.85.41.41,0,0,1-.29,0l-10.81-4.35h0a.5.5,0,0,1,.37-.93,17.62,17.62,0,0,0,6.58,1.24c5.7,0,11.94-2.53,18-7.31,18.12-14.19,30.23-44.27,27-67.06-1.52-10.72-6.22-18.28-13.24-21.27a.52.52,0,0,1-.27-.66.51.51,0,0,1,.65-.27l9.06,3.65.68.27.74.3a.48.48,0,0,1,.23.19c6.81,3.41,11.38,11.06,12.87,21.57,3.28,23.1-9,53.6-27.37,68C653.53,236.37,647.1,239,641.19,239Zm-5.68-1.88h.11a17.74,17.74,0,0,0,5.57.87c5.69,0,11.9-2.52,18-7.27,18.12-14.19,30.23-44.27,27-67.06-1.46-10.29-5.91-17.72-12.54-20.92a.61.61,0,0,1-.17-.14l-.52-.21c-.22-.1-.44-.18-.66-.27l-3.87-1.56c4.68,4,7.82,10.6,9,19,3.27,23.1-9,53.6-27.38,68-6.28,4.92-12.73,7.52-18.66,7.52h0l-1.08,0,5.07,2A.34.34,0,0,1,635.51,237.08Z"/><rect class="cls-9" x="291.12" y="101.44" width="292.34" height="23.64"/><path class="cls-8" d="M583.46,125.58H291.12a.5.5,0,0,1-.5-.5V101.44a.5.5,0,0,1,.5-.5H583.46a.5.5,0,0,1,.5.5v23.64A.5.5,0,0,1,583.46,125.58Zm-291.84-1H583V101.94H291.62Z"/><path class="cls-8" d="M597.31,471.44H523.18a.51.51,0,0,1-.5-.5V394.6a.51.51,0,0,1,.5-.5h74.13a.51.51,0,0,1,.5.5v76.34A.51.51,0,0,1,597.31,471.44Zm-73.63-1h73.13V395.1H523.68Z"/><rect class="cls-6" x="470.3" y="148.81" width="76.42" height="7.3"/><rect class="cls-6" x="470.3" y="135.23" width="76.42" height="7.3"/><rect class="cls-6" x="470.3" y="175.97" width="76.42" height="7.3"/><rect class="cls-6" x="470.3" y="162.39" width="76.42" height="7.3"/><rect class="cls-6" x="470.3" y="189.55" width="115.05" height="7.3"/><rect class="cls-6" x="552.84" y="135.23" width="32.51" height="46.82"/><rect class="cls-6" x="598.89" y="125.08" width="21" height="19.41"/><rect class="cls-6" x="623.76" y="125.08" width="15.23" height="6.08"/><rect class="cls-6" x="681.06" y="236.32" width="24.92" height="21.12"/><rect class="cls-6" x="592.35" y="262.39" width="46.64" height="8.44"/><path class="cls-6" d="M318.1,321.08a.5.5,0,0,1-.5-.5V230.41a.5.5,0,1,1,1,0v90.17A.5.5,0,0,1,318.1,321.08Z"/><path class="cls-6" d="M336.09,321.08a.5.5,0,0,1-.5-.5V230.41a.5.5,0,0,1,.5-.5.5.5,0,0,1,.5.5v90.17A.51.51,0,0,1,336.09,321.08Z"/><path class="cls-6" d="M354.08,321.08a.5.5,0,0,1-.5-.5V230.41a.5.5,0,0,1,.5-.5.5.5,0,0,1,.5.5v90.17A.51.51,0,0,1,354.08,321.08Z"/><path class="cls-6" d="M372.07,321.08a.5.5,0,0,1-.5-.5V230.41a.5.5,0,0,1,.5-.5.5.5,0,0,1,.5.5v90.17A.51.51,0,0,1,372.07,321.08Z"/><path class="cls-6" d="M390.05,321.08a.51.51,0,0,1-.5-.5V230.41a.5.5,0,0,1,.5-.5.5.5,0,0,1,.5.5v90.17A.5.5,0,0,1,390.05,321.08Z"/><path class="cls-6" d="M408,321.08a.51.51,0,0,1-.5-.5V230.41a.5.5,0,0,1,.5-.5.5.5,0,0,1,.5.5v90.17A.5.5,0,0,1,408,321.08Z"/><path class="cls-6" d="M426,321.08a.51.51,0,0,1-.5-.5V230.41a.5.5,0,0,1,.5-.5.5.5,0,0,1,.5.5v90.17A.5.5,0,0,1,426,321.08Z"/><path class="cls-6" d="M444,321.08a.51.51,0,0,1-.5-.5V230.41a.5.5,0,0,1,.5-.5.5.5,0,0,1,.5.5v90.17A.5.5,0,0,1,444,321.08Z"/><path class="cls-6" d="M462,321.08a.5.5,0,0,1-.5-.5V230.41a.5.5,0,1,1,1,0v90.17A.5.5,0,0,1,462,321.08Z"/><path class="cls-6" d="M480,321.08a.5.5,0,0,1-.5-.5V230.41a.5.5,0,1,1,1,0v90.17A.5.5,0,0,1,480,321.08Z"/><path class="cls-6" d="M480,230.91H318.1a.5.5,0,0,1-.5-.5.5.5,0,0,1,.5-.5H480a.5.5,0,0,1,.5.5A.5.5,0,0,1,480,230.91Z"/><path class="cls-6" d="M480,248.9H318.1a.5.5,0,0,1-.5-.5.5.5,0,0,1,.5-.5H480a.5.5,0,0,1,.5.5A.5.5,0,0,1,480,248.9Z"/><path class="cls-6" d="M480,266.89H318.1a.5.5,0,0,1-.5-.5.5.5,0,0,1,.5-.5H480a.5.5,0,0,1,.5.5A.5.5,0,0,1,480,266.89Z"/><path class="cls-6" d="M480,284.87H318.1a.5.5,0,0,1-.5-.5.5.5,0,0,1,.5-.5H480a.5.5,0,0,1,.5.5A.5.5,0,0,1,480,284.87Z"/><path class="cls-6" d="M480,302.86H318.1a.5.5,0,0,1-.5-.5.5.5,0,0,1,.5-.5H480a.5.5,0,0,1,.5.5A.5.5,0,0,1,480,302.86Z"/><path class="cls-6" d="M480,320.85H318.1a.5.5,0,0,1-.5-.5.5.5,0,0,1,.5-.5H480a.5.5,0,0,1,.5.5A.5.5,0,0,1,480,320.85Z"/><path class="cls-8" d="M480,295.52H318.1a.5.5,0,0,1-.5-.5V278.08a.5.5,0,0,1,.5-.5c4.75,0,7.11,3.31,9.4,6.5s4.34,6.09,8.58,6.09,6.35-8.84,8.51-17.39c2.36-9.33,4.59-18.14,9.48-18.14s7.19,6,9.46,11.79c2.15,5.48,4.37,11.15,8.53,11.15s6.36-2.75,8.6-5.65,4.64-6,9.39-6,7.4,3.58,10,7.06,4.91,6.65,9.16,6.65,6.87-4.57,9.68-9.42,5.77-9.92,10.56-9.92,6.3,2.92,7.75,5.75c1.37,2.67,2.67,5.2,6.86,5.2s7.69-7.92,11.1-15.57c3.69-8.31,7.18-16.16,12-16.16,8.56,0,12.84,49,13.36,55.36a.48.48,0,0,1,0,.18A.5.5,0,0,1,480,295.52Zm-161.42-1H479.46c-1.81-21.93-6.54-54-12.33-54-4.18,0-7.7,7.91-11.1,15.57-3.69,8.31-7.19,16.16-12,16.16s-6.3-2.92-7.75-5.75c-1.38-2.67-2.67-5.2-6.86-5.2s-6.87,4.58-9.69,9.42-5.77,9.92-10.55,9.92-7.4-3.59-10-7.06-4.91-6.65-9.15-6.65-6.37,2.74-8.6,5.65-4.65,6-9.39,6-7.19-6-9.46-11.79c-2.15-5.48-4.37-11.15-8.53-11.15s-6.35,8.84-8.51,17.39c-2.36,9.33-4.59,18.14-9.48,18.14s-7.11-3.31-9.4-6.51c-2.14-3-4.17-5.84-8.08-6.07Z"/><path class="cls-8" d="M339.16,300.46H333a.5.5,0,0,1-.5-.5v-3.14a.5.5,0,0,1,.5-.5h6.15a.5.5,0,0,1,.5.5V300A.5.5,0,0,1,339.16,300.46Zm-5.65-1h5.15v-2.14h-5.15Z"/><path class="cls-8" d="M375.14,300.46H369a.5.5,0,0,1-.5-.5v-3.14a.5.5,0,0,1,.5-.5h6.15a.5.5,0,0,1,.5.5V300A.5.5,0,0,1,375.14,300.46Zm-5.65-1h5.15v-2.14h-5.15Z"/><path class="cls-8" d="M411.12,300.46H405a.5.5,0,0,1-.5-.5v-3.14a.5.5,0,0,1,.5-.5h6.15a.5.5,0,0,1,.5.5V300A.5.5,0,0,1,411.12,300.46Zm-5.65-1h5.15v-2.14h-5.15Z"/><path class="cls-8" d="M447.09,300.46H441a.5.5,0,0,1-.5-.5v-3.14a.5.5,0,0,1,.5-.5h6.14a.5.5,0,0,1,.5.5V300A.5.5,0,0,1,447.09,300.46Zm-5.64-1h5.14v-2.14h-5.14Z"/><path class="cls-8" d="M336.09,295.27a.25.25,0,0,1-.25-.25v-1a.25.25,0,0,1,.5,0v1A.25.25,0,0,1,336.09,295.27Z"/><path class="cls-8" d="M336.09,292.33a.25.25,0,0,1-.25-.25v-1.94a.25.25,0,0,1,.5,0v1.94A.25.25,0,0,1,336.09,292.33Zm0-3.88a.25.25,0,0,1-.25-.25v-1.94a.25.25,0,0,1,.5,0v1.94A.25.25,0,0,1,336.09,288.45Zm0-3.88a.25.25,0,0,1-.25-.25v-1.94a.25.25,0,0,1,.5,0v1.94A.25.25,0,0,1,336.09,284.57Zm0-3.88a.25.25,0,0,1-.25-.25V278.5a.25.25,0,0,1,.5,0v1.94A.25.25,0,0,1,336.09,280.69Zm0-3.88a.25.25,0,0,1-.25-.25v-1.94a.25.25,0,0,1,.5,0v1.94A.25.25,0,0,1,336.09,276.81Zm0-3.88a.25.25,0,0,1-.25-.25v-1.94a.25.25,0,0,1,.5,0v1.94A.25.25,0,0,1,336.09,272.93Zm0-3.88a.25.25,0,0,1-.25-.25v-1.94a.25.25,0,0,1,.5,0v1.94A.25.25,0,0,1,336.09,269.05Zm0-3.88a.25.25,0,0,1-.25-.25V263a.25.25,0,0,1,.5,0v1.94A.25.25,0,0,1,336.09,265.17Zm0-3.88a.25.25,0,0,1-.25-.25V259.1a.25.25,0,0,1,.5,0V261A.25.25,0,0,1,336.09,261.29Zm0-3.88a.25.25,0,0,1-.25-.25v-1.94a.25.25,0,1,1,.5,0v1.94A.25.25,0,0,1,336.09,257.41Zm0-3.88a.25.25,0,0,1-.25-.25v-1.94a.25.25,0,1,1,.5,0v1.94A.25.25,0,0,1,336.09,253.53Z"/><path class="cls-8" d="M336.09,249.65a.25.25,0,0,1-.25-.25v-1a.25.25,0,0,1,.5,0v1A.25.25,0,0,1,336.09,249.65Z"/><path class="cls-8" d="M372.07,295.27a.25.25,0,0,1-.25-.25v-1a.25.25,0,0,1,.25-.25.25.25,0,0,1,.25.25v1A.26.26,0,0,1,372.07,295.27Z"/><path class="cls-8" d="M372.07,292.33a.25.25,0,0,1-.25-.25v-1.94a.25.25,0,0,1,.25-.25.25.25,0,0,1,.25.25v1.94A.25.25,0,0,1,372.07,292.33Zm0-3.88a.25.25,0,0,1-.25-.25v-1.94a.25.25,0,0,1,.25-.25.25.25,0,0,1,.25.25v1.94A.25.25,0,0,1,372.07,288.45Zm0-3.88a.25.25,0,0,1-.25-.25v-1.94a.25.25,0,0,1,.25-.25.25.25,0,0,1,.25.25v1.94A.25.25,0,0,1,372.07,284.57Zm0-3.88a.25.25,0,0,1-.25-.25V278.5a.25.25,0,0,1,.25-.25.25.25,0,0,1,.25.25v1.94A.25.25,0,0,1,372.07,280.69Zm0-3.88a.25.25,0,0,1-.25-.25v-1.94a.25.25,0,0,1,.25-.25.25.25,0,0,1,.25.25v1.94A.25.25,0,0,1,372.07,276.81Zm0-3.88a.25.25,0,0,1-.25-.25v-1.94a.25.25,0,0,1,.25-.25.25.25,0,0,1,.25.25v1.94A.26.26,0,0,1,372.07,272.93Zm0-3.88a.25.25,0,0,1-.25-.25v-1.94a.25.25,0,0,1,.25-.25.25.25,0,0,1,.25.25v1.94A.26.26,0,0,1,372.07,269.05Zm0-3.88a.25.25,0,0,1-.25-.25V263a.25.25,0,0,1,.25-.25.25.25,0,0,1,.25.25v1.94A.26.26,0,0,1,372.07,265.17Zm0-3.88a.25.25,0,0,1-.25-.25V259.1a.25.25,0,0,1,.25-.25.25.25,0,0,1,.25.25V261A.26.26,0,0,1,372.07,261.29Zm0-3.88a.25.25,0,0,1-.25-.25v-1.94a.25.25,0,0,1,.25-.25.25.25,0,0,1,.25.25v1.94A.26.26,0,0,1,372.07,257.41Zm0-3.88a.25.25,0,0,1-.25-.25v-1.94a.25.25,0,0,1,.25-.25.25.25,0,0,1,.25.25v1.94A.26.26,0,0,1,372.07,253.53Z"/><path class="cls-8" d="M372.07,249.65a.25.25,0,0,1-.25-.25v-1a.25.25,0,0,1,.25-.25.25.25,0,0,1,.25.25v1A.26.26,0,0,1,372.07,249.65Z"/><path class="cls-8" d="M408,295.27a.26.26,0,0,1-.25-.25v-1a.25.25,0,0,1,.25-.25.25.25,0,0,1,.25.25v1A.25.25,0,0,1,408,295.27Z"/><path class="cls-8" d="M408,292.33a.25.25,0,0,1-.25-.25v-1.94a.25.25,0,0,1,.25-.25.25.25,0,0,1,.25.25v1.94A.25.25,0,0,1,408,292.33Zm0-3.88a.25.25,0,0,1-.25-.25v-1.94A.25.25,0,0,1,408,286a.25.25,0,0,1,.25.25v1.94A.25.25,0,0,1,408,288.45Zm0-3.88a.25.25,0,0,1-.25-.25v-1.94a.25.25,0,0,1,.25-.25.25.25,0,0,1,.25.25v1.94A.25.25,0,0,1,408,284.57Zm0-3.88a.25.25,0,0,1-.25-.25V278.5a.25.25,0,0,1,.25-.25.25.25,0,0,1,.25.25v1.94A.25.25,0,0,1,408,280.69Zm0-3.88a.25.25,0,0,1-.25-.25v-1.94a.25.25,0,0,1,.25-.25.25.25,0,0,1,.25.25v1.94A.25.25,0,0,1,408,276.81Zm0-3.88a.26.26,0,0,1-.25-.25v-1.94a.25.25,0,0,1,.25-.25.25.25,0,0,1,.25.25v1.94A.25.25,0,0,1,408,272.93Zm0-3.88a.26.26,0,0,1-.25-.25v-1.94a.25.25,0,0,1,.25-.25.25.25,0,0,1,.25.25v1.94A.25.25,0,0,1,408,269.05Zm0-3.88a.26.26,0,0,1-.25-.25V263a.25.25,0,0,1,.25-.25.25.25,0,0,1,.25.25v1.94A.25.25,0,0,1,408,265.17Zm0-3.88a.26.26,0,0,1-.25-.25V259.1a.25.25,0,0,1,.25-.25.25.25,0,0,1,.25.25V261A.25.25,0,0,1,408,261.29Zm0-3.88a.26.26,0,0,1-.25-.25v-1.94A.25.25,0,0,1,408,255a.25.25,0,0,1,.25.25v1.94A.25.25,0,0,1,408,257.41Zm0-3.88a.26.26,0,0,1-.25-.25v-1.94a.25.25,0,0,1,.25-.25.25.25,0,0,1,.25.25v1.94A.25.25,0,0,1,408,253.53Z"/><path class="cls-8" d="M408,249.65a.26.26,0,0,1-.25-.25v-1a.25.25,0,0,1,.25-.25.25.25,0,0,1,.25.25v1A.25.25,0,0,1,408,249.65Z"/><path class="cls-8" d="M444,295.27a.25.25,0,0,1-.25-.25v-1a.25.25,0,0,1,.5,0v1A.25.25,0,0,1,444,295.27Z"/><path class="cls-8" d="M444,292.33a.25.25,0,0,1-.25-.25v-1.94a.25.25,0,0,1,.5,0v1.94A.25.25,0,0,1,444,292.33Zm0-3.88a.25.25,0,0,1-.25-.25v-1.94a.25.25,0,0,1,.5,0v1.94A.25.25,0,0,1,444,288.45Zm0-3.88a.25.25,0,0,1-.25-.25v-1.94a.25.25,0,0,1,.5,0v1.94A.25.25,0,0,1,444,284.57Zm0-3.88a.25.25,0,0,1-.25-.25V278.5a.25.25,0,0,1,.5,0v1.94A.25.25,0,0,1,444,280.69Zm0-3.88a.25.25,0,0,1-.25-.25v-1.94a.25.25,0,0,1,.5,0v1.94A.25.25,0,0,1,444,276.81Zm0-3.88a.25.25,0,0,1-.25-.25v-1.94a.25.25,0,0,1,.5,0v1.94A.25.25,0,0,1,444,272.93Zm0-3.88a.25.25,0,0,1-.25-.25v-1.94a.25.25,0,0,1,.5,0v1.94A.25.25,0,0,1,444,269.05Zm0-3.88a.25.25,0,0,1-.25-.25V263a.25.25,0,0,1,.5,0v1.94A.25.25,0,0,1,444,265.17Zm0-3.88a.25.25,0,0,1-.25-.25V259.1a.25.25,0,0,1,.5,0V261A.25.25,0,0,1,444,261.29Zm0-3.88a.25.25,0,0,1-.25-.25v-1.94a.25.25,0,0,1,.5,0v1.94A.25.25,0,0,1,444,257.41Zm0-3.88a.25.25,0,0,1-.25-.25v-1.94a.25.25,0,0,1,.5,0v1.94A.25.25,0,0,1,444,253.53Z"/><path class="cls-8" d="M444,249.65a.25.25,0,0,1-.25-.25v-1a.25.25,0,1,1,.5,0v1A.25.25,0,0,1,444,249.65Z"/><path class="cls-8" d="M336.09,248.33a2.3,2.3,0,1,1,2.3-2.3A2.3,2.3,0,0,1,336.09,248.33Zm0-3.59a1.3,1.3,0,1,0,1.3,1.29A1.3,1.3,0,0,0,336.09,244.74Z"/><path class="cls-8" d="M372.07,248.33a2.3,2.3,0,1,1,2.29-2.3A2.3,2.3,0,0,1,372.07,248.33Zm0-3.59a1.3,1.3,0,1,0,1.29,1.29A1.3,1.3,0,0,0,372.07,244.74Z"/><path class="cls-8" d="M408,248.33a2.3,2.3,0,1,1,2.3-2.3A2.31,2.31,0,0,1,408,248.33Zm0-3.59a1.3,1.3,0,1,0,1.3,1.29A1.3,1.3,0,0,0,408,244.74Z"/><path class="cls-8" d="M444,248.33a2.3,2.3,0,1,1,2.3-2.3A2.3,2.3,0,0,1,444,248.33Zm0-3.59a1.3,1.3,0,1,0,1.3,1.29A1.3,1.3,0,0,0,444,244.74Z"/><path class="cls-16" d="M366.05,174.47c-17.17,9.91-17.17,26,0,35.89,7.61,4.39,17.31,6.84,27.25,7.34,12.49.63,25.36-1.82,34.92-7.34,13.43-7.75,16.35-19.28,8.77-28.68a31.18,31.18,0,0,0-8.77-7.21c-15.32-8.85-39.15-9.8-56.3-2.85h0A45.41,45.41,0,0,0,366.05,174.47Z"/><path class="cls-16" d="M397.14,192.41,393.3,217.7c12.49.63,25.36-1.82,34.92-7.34,13.43-7.75,16.35-19.28,8.77-28.68Z"/><path class="cls-17" d="M371.92,171.62c17.15-7,41-6,56.3,2.85a31.18,31.18,0,0,1,8.77,7.21l-39.85,10.73-25.23-20.79Z"/><path class="cls-18" d="M397.14,192.41l-31.09,18c7.61,4.39,17.31,6.84,27.25,7.34Z"/><path class="cls-19" d="M371.92,171.62l25.22,20.79-31.09,18c-17.17-9.91-17.17-26,0-35.89a45.41,45.41,0,0,1,5.86-2.85Z"/><path class="cls-9" d="M371.92,142.83c17.15-6.94,41-6,56.3,2.85A31.37,31.37,0,0,1,437,152.9l-39.85,10.73-25.23-20.79Z"/><path class="cls-8" d="M397.14,164.13a.52.52,0,0,1-.32-.11l-25.22-20.8a.49.49,0,0,1-.18-.44.5.5,0,0,1,.27-.39,68.39,68.39,0,0,1,25.45-4.64c11.83,0,22.95,2.66,31.33,7.5a31.57,31.57,0,0,1,8.91,7.34.52.52,0,0,1,.08.47.48.48,0,0,1-.34.32l-39.85,10.73ZM372.89,143l24.37,20.09,38.84-10.46a31.27,31.27,0,0,0-8.13-6.5c-8.23-4.75-19.18-7.37-30.83-7.37A67.71,67.71,0,0,0,372.89,143Z"/><polygon class="cls-7" points="436.99 152.9 436.99 181.69 397.14 192.41 397.14 163.63 436.99 152.9"/><path class="cls-8" d="M397.14,192.91a.49.49,0,0,1-.5-.5V163.63a.49.49,0,0,1,.37-.48l39.85-10.73a.5.5,0,0,1,.43.08.54.54,0,0,1,.2.4v28.78a.52.52,0,0,1-.37.49L397.27,192.9Zm.5-28.9v27.75l38.85-10.46V153.55Z"/><polygon class="cls-7" points="397.14 163.63 371.92 142.84 371.92 171.62 397.14 192.41 397.14 163.63"/><path class="cls-8" d="M397.14,192.91a.52.52,0,0,1-.32-.11L371.6,172a.53.53,0,0,1-.18-.39V142.83a.51.51,0,0,1,.28-.45.53.53,0,0,1,.54.07l25.21,20.79a.51.51,0,0,1,.19.39v28.78a.48.48,0,0,1-.5.5Zm-24.72-21.53,24.22,20V163.87l-24.22-20Z"/><path class="cls-9" d="M371.92,164.12l25.22,20.8-31.09,17.94c-17.17-9.91-17.17-26,0-35.89a48.18,48.18,0,0,1,5.86-2.85Z"/><path class="cls-8" d="M366.05,203.36a.57.57,0,0,1-.25-.06c-8.46-4.89-13.12-11.42-13.12-18.38s4.66-13.5,13.12-18.38a47.94,47.94,0,0,1,5.93-2.88.5.5,0,0,1,.51.08l25.21,20.79a.48.48,0,0,1,.18.43.49.49,0,0,1-.24.39l-31.09,18A.54.54,0,0,1,366.05,203.36Zm5.78-38.66a47.34,47.34,0,0,0-5.53,2.7c-8.14,4.7-12.62,10.92-12.62,17.52s4.39,12.68,12.37,17.37l30.21-17.45Z"/><polygon class="cls-20" points="366.05 202.86 366.05 210.36 397.14 192.41 397.14 184.92 366.05 202.86"/><path class="cls-9" d="M353.22,186c0,.14,0,.27,0,.41s.05.44.08.67.05.33.08.49l.12.59c1.2,5.38,5.36,10.57,12.51,14.7v7.5c-8.58-5-12.87-11.45-12.87-18h0v-7.49C353.18,185.28,353.19,185.64,353.22,186Z"/><path class="cls-8" d="M366.05,210.86a.47.47,0,0,1-.25-.07c-8.46-4.88-13.12-11.41-13.12-18.38v-7.49h0a.5.5,0,0,1,.5-.5.5.5,0,0,1,.5.5c0,.35,0,.7,0,1.05l0,.39c0,.21,0,.43.08.64s.05.32.07.48l.12.57c1.22,5.48,5.46,10.45,12.27,14.38a.5.5,0,0,1,.25.43v7.5a.48.48,0,0,1-.25.43A.45.45,0,0,1,366.05,210.86Zm-12.37-20.48v2c0,6.39,4.2,12.43,11.87,17.07v-6.33C359.5,199.61,355.44,195.23,353.68,190.38Z"/><path class="cls-9" d="M397.14,179.92l-31.09,18c7.61,4.39,17.31,6.84,27.25,7.33Z"/><path class="cls-8" d="M393.3,205.7h0c-10.35-.52-20.11-3.14-27.48-7.4a.5.5,0,0,1-.25-.43.52.52,0,0,1,.25-.44l31.09-17.94a.49.49,0,0,1,.53,0,.47.47,0,0,1,.21.48l-3.83,25.29A.51.51,0,0,1,393.3,205.7Zm-26.24-7.84c7,3.87,16.14,6.28,25.82,6.82l3.61-23.81Z"/><path class="cls-9" d="M372.12,200.8l.14,0a59.06,59.06,0,0,0,6.55,2.15h0a70.86,70.86,0,0,0,14.49,2.2l1.76-11.59,2.08-1.2L393.3,217.7c-9.94-.5-19.64-2.95-27.25-7.34V197.87A48,48,0,0,0,372.12,200.8Z"/><path class="cls-8" d="M393.3,218.2h0c-10.35-.52-20.11-3.15-27.48-7.41a.5.5,0,0,1-.25-.43V197.87a.52.52,0,0,1,.25-.44.5.5,0,0,1,.5,0,45.83,45.83,0,0,0,6,2.9l-.05.52.19-.46a58.5,58.5,0,0,0,6.48,2.12,69.59,69.59,0,0,0,13.95,2.17l1.69-11.14a.5.5,0,0,1,.24-.36l2.08-1.2a.51.51,0,0,1,.53,0,.5.5,0,0,1,.21.49l-3.83,25.28A.51.51,0,0,1,393.3,218.2Zm-26.75-8.13c7.1,4,16.42,6.55,26.33,7.1l3.61-23.8-1,.56-1.72,11.35a.51.51,0,0,1-.52.42,70.78,70.78,0,0,1-14.6-2.22,55.44,55.44,0,0,1-6.6-2.17l0-.51-.18.46a47.84,47.84,0,0,1-5.39-2.54Z"/><polygon class="cls-21" points="397.14 192.41 393.3 217.7 393.3 205.2 397.14 179.92 397.14 192.41"/><path class="cls-9" d="M397.14,174.36l-3.84,25.28c12.49.63,25.36-1.81,34.92-7.33,13.43-7.76,16.35-19.29,8.77-28.68Z"/><path class="cls-8" d="M397.16,200.24c-1.29,0-2.6,0-3.88-.1a.53.53,0,0,1-.37-.18.54.54,0,0,1-.1-.39l3.83-25.29a.49.49,0,0,1,.37-.4l39.85-10.73a.48.48,0,0,1,.51.17c3.48,4.3,4.85,9.09,4,13.86-1.09,5.88-5.66,11.4-12.86,15.56C420.09,197.58,409,200.24,397.16,200.24Zm-3.28-1.07c1.09.05,2.19.07,3.28.07,11.64,0,22.58-2.62,30.81-7.37,6.94-4,11.34-9.29,12.38-14.88.81-4.37-.41-8.79-3.55-12.79l-39.22,10.56Z"/><path class="cls-9" d="M395.14,199.71l.89,0h0c11.61.17,23.33-2.3,32.19-7.42a29.21,29.21,0,0,0,10-8.92h0v0a18.36,18.36,0,0,0,1.33-2.39l.06-.13a15.7,15.7,0,0,0,1.19-3.71v0a14.93,14.93,0,0,0,.22-3.83h0v18.84c.14,6.6-4.14,13.23-12.87,18.27-9.56,5.52-22.43,8-34.92,7.34V199.64Z"/><path class="cls-8" d="M397.16,218.29c-1.29,0-2.6,0-3.88-.09a.51.51,0,0,1-.48-.5V199.64a.48.48,0,0,1,.16-.36.5.5,0,0,1,.37-.14l1.83.07.87,0c12.05.17,23.46-2.46,31.94-7.36a28.55,28.55,0,0,0,9.84-8.76,18.74,18.74,0,0,0,1.31-2.34l.06-.13a15.87,15.87,0,0,0,1.15-3.6,14.36,14.36,0,0,0,.22-3.74.49.49,0,0,1,.36-.52.53.53,0,0,1,.46.07.51.51,0,0,1,.22.4v18.8s0,.1,0,.12c.16,7-4.5,13.65-13.11,18.62C420.09,215.63,409,218.29,397.16,218.29Zm-3.36-1.07c1.12.05,2.24.07,3.36.07,11.64,0,22.58-2.61,30.81-7.36s12.76-11.12,12.62-17.83V179.83c-.15.42-.32.83-.5,1.23l-.06.13a20.36,20.36,0,0,1-1.37,2.45,29.65,29.65,0,0,1-10.19,9.1c-8.37,4.83-19.49,7.49-31.31,7.49H396l-.89,0-1.33-.05Z"/><path class="cls-8" d="M338.74,141.69a.19.19,0,0,1-.12,0l-.86-.51a.25.25,0,1,1,.25-.43l.86.51a.26.26,0,0,1,.09.35A.27.27,0,0,1,338.74,141.69Z"/><path class="cls-8" d="M369.36,160a.2.2,0,0,1-.13,0l-1.7-1a.25.25,0,1,1,.25-.43l1.7,1a.25.25,0,0,1-.12.46ZM366,158a.19.19,0,0,1-.12,0l-1.7-1a.26.26,0,0,1-.09-.35.24.24,0,0,1,.34-.08l1.7,1a.26.26,0,0,1,.09.35A.27.27,0,0,1,366,158Zm-3.4-2a.27.27,0,0,1-.12,0l-1.71-1a.25.25,0,0,1-.08-.34.25.25,0,0,1,.34-.09l1.7,1a.25.25,0,0,1,.09.34A.25.25,0,0,1,362.55,155.91Zm-3.4-2a.31.31,0,0,1-.13,0l-1.7-1a.24.24,0,0,1-.08-.34.25.25,0,0,1,.34-.09l1.7,1a.25.25,0,0,1,.09.34A.25.25,0,0,1,359.15,153.88Zm-3.4-2a.22.22,0,0,1-.13,0l-1.7-1a.24.24,0,0,1-.08-.34.25.25,0,0,1,.34-.09l1.7,1a.25.25,0,0,1,.09.34A.25.25,0,0,1,355.75,151.85Zm-3.4-2a.22.22,0,0,1-.13,0l-1.7-1a.26.26,0,0,1-.09-.35.26.26,0,0,1,.35-.08l1.7,1a.25.25,0,0,1,.08.35A.26.26,0,0,1,352.35,149.82Zm-3.4-2a.28.28,0,0,1-.13,0l-1.7-1a.25.25,0,0,1-.09-.34.26.26,0,0,1,.35-.09l1.7,1a.24.24,0,0,1,.08.34A.24.24,0,0,1,349,147.78Zm-3.4-2a.28.28,0,0,1-.13,0l-1.7-1a.25.25,0,0,1-.09-.34.26.26,0,0,1,.35-.09l1.7,1a.25.25,0,0,1,.08.34A.24.24,0,0,1,345.55,145.75Zm-3.4-2a.2.2,0,0,1-.13,0l-1.7-1a.25.25,0,1,1,.25-.43l1.7,1a.26.26,0,0,1,.09.35A.25.25,0,0,1,342.15,143.72Z"/><path class="cls-8" d="M371.91,161.51a.19.19,0,0,1-.12,0l-.86-.51a.25.25,0,1,1,.25-.43l.86.52a.25.25,0,0,1,.09.34A.25.25,0,0,1,371.91,161.51Z"/><path class="cls-8" d="M437.86,203.87a.27.27,0,0,1-.12,0l-.88-.48a.25.25,0,0,1,.25-.44l.87.49a.24.24,0,0,1,.1.33A.23.23,0,0,1,437.86,203.87Z"/><path class="cls-8" d="M457.79,214.87a.19.19,0,0,1-.12,0l-1.66-.91a.26.26,0,0,1-.1-.34.25.25,0,0,1,.34-.1l1.67.92a.24.24,0,0,1,.09.34A.25.25,0,0,1,457.79,214.87ZM454.47,213a.27.27,0,0,1-.12,0l-1.66-.91a.26.26,0,0,1-.1-.34.25.25,0,0,1,.34-.1l1.66.91a.25.25,0,0,1,.1.34A.23.23,0,0,1,454.47,213Zm-3.32-1.83-.12,0-1.66-.92a.24.24,0,0,1-.1-.33.24.24,0,0,1,.34-.1l1.66.91a.25.25,0,0,1-.12.47Zm-3.32-1.83-.12,0-1.66-.92a.25.25,0,0,1-.1-.34.24.24,0,0,1,.34-.09l1.66.91a.25.25,0,0,1-.12.47Zm-3.32-1.83a.31.31,0,0,1-.13,0l-1.66-.92a.25.25,0,0,1-.09-.34.25.25,0,0,1,.34-.1l1.66.92a.25.25,0,0,1-.12.47Zm-3.33-1.83a.19.19,0,0,1-.12,0l-1.66-.91a.26.26,0,0,1-.1-.34.25.25,0,0,1,.34-.1l1.66.92a.24.24,0,0,1,.1.34A.25.25,0,0,1,441.18,205.71Z"/><path class="cls-8" d="M460.33,216.26l-.12,0-.88-.48a.25.25,0,0,1-.09-.34.25.25,0,0,1,.34-.1l.87.49a.24.24,0,0,1,.1.34A.25.25,0,0,1,460.33,216.26Z"/><polygon class="cls-9" points="480.72 218.9 485.19 211.15 489.67 218.9 480.72 218.9"/><path class="cls-8" d="M489.68,219.15h-9a.23.23,0,0,1-.21-.13.23.23,0,0,1,0-.25L485,211a.25.25,0,0,1,.43,0l4.44,7.69a.23.23,0,0,1,.08.18A.25.25,0,0,1,489.68,219.15Zm-8.53-.5h8.08l-4-7Z"/><polygon class="cls-9" points="480.72 210.75 485.19 203 489.67 210.75 480.72 210.75"/><path class="cls-8" d="M489.68,211h-9a.23.23,0,0,1-.21-.13.23.23,0,0,1,0-.25l4.47-7.74a.25.25,0,0,1,.43,0l4.44,7.68a.26.26,0,0,1,.08.19A.26.26,0,0,1,489.68,211Zm-8.53-.5h8.08l-4-7Z"/><rect class="cls-9" x="465.94" y="211.15" width="9.85" height="7.74"/><path class="cls-8" d="M475.79,219.15h-9.85a.25.25,0,0,1-.25-.25v-7.75a.25.25,0,0,1,.25-.25h9.85a.25.25,0,0,1,.25.25v7.75A.25.25,0,0,1,475.79,219.15Zm-9.6-.5h9.35V211.4h-9.35Z"/><path class="cls-9" d="M336.39,138.25a4.56,4.56,0,1,1-4.55-4.55A4.55,4.55,0,0,1,336.39,138.25Z"/><path class="cls-8" d="M331.84,143.05a4.8,4.8,0,1,1,4.8-4.8A4.81,4.81,0,0,1,331.84,143.05Zm0-9.1a4.3,4.3,0,1,0,4.3,4.3A4.31,4.31,0,0,0,331.84,134Z"/><circle class="cls-8" cx="331.84" cy="138.25" r="1.73"/></g><g id="woman"><path class="cls-22" d="M501.87,454.24s2.95,3.25,3.08,5.51-2.63,3.67-4.1,4.7a33.06,33.06,0,0,0-5.55,4.47c-1.26,1.52-5.36,4.69-9.51,4.67-3.71,0-4.76-2.25-2.88-4.13s3.64-2.57,4.62-3.62c.65-.7,3.88-6.42,6.68-11.2,1.43-2.44,2.39-5.49,3.57-5.75C501.25,448.13,501.87,454.24,501.87,454.24Z"/><path class="cls-23" d="M502.08,454.45s1.3,1.94-.54,4.63c-1,1.41-5.58,3.69-7.26,5.51s-6,5.24-7.65,4.63,1.39-4,2.4-5.71,4.72-10,6.46-11.21S502.08,454.45,502.08,454.45Z"/><path class="cls-23" d="M502.39,454.68a4.4,4.4,0,0,1-8.73.79l-.49-2.87L492,446.06,482.51,391l-2.84-16.42a8.07,8.07,0,0,1,15.09-5.14,7.86,7.86,0,0,1,.82,2.39,5.71,5.71,0,0,1,.08.71l5.84,71.09.88,10.72C502.39,454.47,502.39,454.57,502.39,454.68Z"/><path class="cls-24" d="M502.39,454.68a13.57,13.57,0,0,1-9.22-2.08L492,446.06l9.46-2.43.88,10.72C502.39,454.47,502.39,454.57,502.39,454.68Z"/><path class="cls-25" d="M467.14,417.09c-.13,1.79,1.07,4.56.34,6.74-.9,2.72-4,2.58-7.22,2.59a21.33,21.33,0,0,0-4.76.5c-1.3.32-4.76,2.38-9.76,2.9s-7.9-.85-8.07-2c-.23-1.62,4.65-3.58,6.45-4.22s4.49-1.21,6.06-2.58a122.63,122.63,0,0,1,10.57-7C465.41,411.19,467.14,417.09,467.14,417.09Z"/><path class="cls-23" d="M467.27,416.39s.06,4.22-2.76,5.34-7.32,1.12-10.27,2.06-11,3.7-12,2.35,2-2.36,5.24-3.67,8.94-6.87,12-7.75S467.27,416.39,467.27,416.39Z"/><path class="cls-26" d="M541.67,332.52c3.38-4.32-2.3-10.72-5.74-12.08s-20.2-8.31-23.39-10.42l-4.3,5S535,341.08,541.67,332.52Z"/><path class="cls-27" d="M540.13,349.59a7.14,7.14,0,0,1-2.08-.31,7,7,0,0,1-4.62-8.76l9.42-30.43a7,7,0,1,1,13.38,4.14l-9.41,30.43A7,7,0,0,1,540.13,349.59Z"/><path class="cls-28" d="M497.62,344.4l66.58,19.89a13,13,0,0,1-7.47,25l-.7-.24-65.35-23.61a11.08,11.08,0,0,1,6.94-21Z"/><path class="cls-29" d="M503.49,448.83c0,4.2-9.95,5.4-10.92,1.51-.49-1.92-4.41-20.4-8.26-38.55l-2.79-13.19c-2.76-13.06-4.94-23.44-4.94-23.44a10.93,10.93,0,0,1,8.41-13,10.94,10.94,0,0,1,12.77,7.71c.07.23.13.47.18.7a10.69,10.69,0,0,1,.19,1.35l1.05,14.48c.06.83.12,1.69.19,2.57C500.94,411,503.49,446.76,503.49,448.83Z"/><path class="cls-30" d="M574.8,376.34a18.36,18.36,0,0,1-18.37,18.37,20.72,20.72,0,0,1-2.24-.15,14.42,14.42,0,0,1-1.47,0c-.36,0-.75-.07-1.1-.12L500.9,386.7l-1.72-.26-9.93-1.5-2-.3a11.16,11.16,0,0,1,2.45-22.16l1,.07h0l10.74.76,14.2,1,25.49,1.8a18.37,18.37,0,0,1,33.61,10.24Z"/><path class="cls-23" d="M501.08,358.22c-.12.26-.25.53-.39.77l-5.93,10.45L482.51,391l-11.76,20.71-3.75,6.6-.15.26a4.4,4.4,0,0,1-7.87-3.92l1.07-2.46,1.58-3.64,24.64-56.75a8.07,8.07,0,1,1,14.81,6.42Z"/><path class="cls-31" d="M529.28,288.37a7.66,7.66,0,0,1-.6-2.22A7.19,7.19,0,1,1,543,284.54c0,.09,0,.19,0,.28h0c.58,7.82.64,8.06,3.81,15.21h0a7.66,7.66,0,0,1,.6,2.22,7.19,7.19,0,1,1-14.29,1.61c0-.09,0-.19,0-.28h0c-.58-7.82-.64-8.06-3.81-15.21Z"/><path class="cls-32" d="M539.33,287.89c.65-1.38,7.41-7.48,7.66-12.69s-2.69-12.09-10.62-12.77-14.8,7.14-14,11.52c.24,1.34.43,3.2,0,4a8.11,8.11,0,0,0-1,3.54c.09,1.1,1.46,9.55,2.79,9.68C528.17,291.55,538.68,289.27,539.33,287.89Z"/><path class="cls-33" d="M529.84,305.94,551,297.25l-2.27-5.15a2.11,2.11,0,0,0-3-.91L532,299.1a5.22,5.22,0,0,0-2.2,6.8Z"/><path class="cls-34" d="M575.75,375.28c-.25,8.44-41,10.89-42.44-3-.47-4.56.3-12.87,0-18-4-15.86-11.57-38.24-10.66-40.7,2.11-5.73,4-8.82,16.65-13.48,12.24-4.52,15.87-1.92,18.59,2.88C564.52,314.59,575.89,370.56,575.75,375.28Z"/><path class="cls-26" d="M508.49,342.24c3-5-3.84-11-7.63-11.95s-22.34-6.07-26-7.87L471,328.26S502.58,352.12,508.49,342.24Z"/><path class="cls-26" d="M536.26,317.91l-13.85,12.38-6.95,6.21-7.11,6.35a6.91,6.91,0,0,1-4.65,1.79,7,7,0,0,1-4.65-12.2l10.47-9.37,1.85-1.64,15.57-13.93a7,7,0,1,1,9.32,10.41Z"/><path class="cls-24" d="M522.41,330.29l-5.65,5c-5.75-3.43-7.24-10.44-7.24-12.27l1.85-1.64,10.92,8.37A4.29,4.29,0,0,1,522.41,330.29Z"/><path class="cls-35" d="M538,307a8.59,8.59,0,0,0-12.14-.68s-13.68,13.92-15.53,15.33c-2.76,2.09,8.19,14.08,10.48,12.25,1.73-1.39,16.51-14.76,16.51-14.76A8.59,8.59,0,0,0,538,307Z"/><path class="cls-36" d="M529.34,274.33c3.34,1.69,1.68,4.75,1.63,8.1-.06,3.77,2.59,3.91,1.45,7.42-3.87,11.93,8.56,27.17,23.67,23.94,15.68-3.34,14.12-22.07,6.86-25.24-6.7-2.93-8.6-.48-11.09-3.71-2-2.52,1.35-9.5-3.36-17.68-5.44-9.45-15.45-7.23-16.79-6.05s-4.74-1.2-6.61.61C522.82,263.92,522.08,270.66,529.34,274.33Z"/><path class="cls-37" d="M531.39,288.83a4,4,0,1,1,4-4A4,4,0,0,1,531.39,288.83Zm0-7.12a3.13,3.13,0,1,0,3.12,3.13A3.13,3.13,0,0,0,531.39,281.71Z"/><path class="cls-26" d="M515.7,312.79s-4.91-4.42-5.21-5.24-1-8.91-1.17-9.93-6.88-3.16-7.59-3.31-6.58,2.3-7.37,2.52-.3,2.26,1.39,1.84,5-1.46,5-1.46l1.24.34s-3.38,1.95-3.72,2.25a5.2,5.2,0,0,0-.64,2.45c0,.64.73,1.15,1.27,1.8a9.36,9.36,0,0,0,.14,1.8c.14.34,1.8.68,2.11.68,0,0,2.09,4.23,2.57,4.91a31.28,31.28,0,0,0,3.86,3.18c1.27,1,4.31,3.79,4.31,3.79Z"/><rect class="cls-38" x="473.64" y="281.64" width="27.39" height="16.07"/><path class="cls-26" d="M506.5,301a9.13,9.13,0,0,1-2.89-.42c-.83-.41-4.59-5-5.87-5.9s-2.82-.3-1.88,1.36,4.51,6.09,4.51,6.09a20.08,20.08,0,0,0,1.78,6.42Z"/><g class="cls-39"><path class="cls-40" d="M515.7,364.3l-14.8,22.4L499.37,389l-15.06,22.78-2.79-13.19,7.73-13.66,8.51-15,3.74-6.6Z"/></g><path class="cls-24" d="M470.75,411.71l-3.75,6.6a16.14,16.14,0,0,1-6.95-6.12l1.58-3.64Z"/><path class="cls-41" d="M497.86,344.51a10.93,10.93,0,0,0-14.19,6.12S462,406.82,460.9,410s9.22,8.86,11,5.58,31.36-55.47,31.36-55.47a11.42,11.42,0,0,0,.7-1.45A10.92,10.92,0,0,0,497.86,344.51Z"/></g><g id="man"><path class="cls-42" d="M356.13,200.2a1,1,0,0,1-.58-1.82l20.72-14.7a1,1,0,0,1,1.15,1.63L356.7,200A1,1,0,0,1,356.13,200.2Z"/><path class="cls-6" d="M228.32,421.23c16.54-12.68,36.25,17.64,58.63,18.41s47.27-3.1,53.17,7.15c5.74,9.95-12.52,46.82-66.33,39.54C229.22,480.3,210.66,434.77,228.32,421.23Z"/><path class="cls-23" d="M281.24,298.19l-3.87,153.92a4.63,4.63,0,0,1-9.26,0l-3.87-153.92a8.5,8.5,0,0,1,17-.43Z"/><path class="cls-43" d="M272.94,454.16c-3.1.94-3.82-1.06-5.21-.28-1.18.66-2.17,9.63,1.55,10.08s6.36-1.16,8.12-1.19,8,2.31,12.52,2.37,8.09-1,7.8-3.08c-.16-1.08-5-2.59-7.59-3s-5.61-3.16-7.64-4.19c-1.17-.6-5.08-5.65-6.4-5.24C274,450.23,276,453.22,272.94,454.16Z"/><path class="cls-26" d="M254.8,251.93c6.39-4,14.33,4.67,15.7,9.55s8.49,28.77,10.92,33.42L274,300.07S242.17,259.86,254.8,251.93Z"/><circle class="cls-44" cx="281.63" cy="305.37" r="23.15" transform="matrix(0.96, -0.29, 0.29, 0.96, -75.47, 93.13)"/><path class="cls-45" d="M272.05,281.92a15.6,15.6,0,0,0-14.89,16.27s7.38,148.26,7.48,152.42,15.51,2.12,15.72-2.73,8-149.69,8-149.69c0-.44,0-.92,0-1.37A15.6,15.6,0,0,0,272.05,281.92Z"/><path class="cls-23" d="M299.55,297.81l28.65,78.48.1.29a6.2,6.2,0,0,1,.2,3.63l-20,81.15a4.63,4.63,0,0,1-9.05-2l15.78-82.08.3,3.92L283.7,304a8.5,8.5,0,1,1,15.72-6.47Z"/><path class="cls-46" d="M334,375.2l-.35-1-27.46-78.95c-.12-.33-.26-.7-.4-1a15.59,15.59,0,1,0-28.65,12.31l31.67,73.72s-10.68,65.94-11.22,70.37,14.62,7.25,16,1.5c1.27-5.16,20.54-70.44,20.54-70.44A10.55,10.55,0,0,0,334,375.2Z"/><path class="cls-26" d="M260.59,264.93a7.64,7.64,0,0,1-6.39-11.81l30.95-47.47A7.64,7.64,0,0,1,297.94,214L267,261.46A7.62,7.62,0,0,1,260.59,264.93Z"/><path class="cls-47" d="M281.81,241.53l17.39-26.72a9.14,9.14,0,1,0-15.31-10s-14,21.59-16.63,25.5S279.82,244.59,281.81,241.53Z"/><path class="cls-48" d="M306.06,207.82H306a5.66,5.66,0,0,1-5.26-6L302,182.9a5.66,5.66,0,0,1,6-5.25h.11a5.65,5.65,0,0,1,5.25,6l-1.31,18.88A5.66,5.66,0,0,1,306.06,207.82Z"/><path class="cls-49" d="M315.1,164.13c3.59,1.39,8.12,5.32,8.7,8.43a12,12,0,0,1-.06,5.85c-.3,1.08-1.37,3.5-1.32,4.4s.19,4-.35,5-4.1,8.2-4.79,8.64c-1.06.68-3.27,1.62-6.26-.33s-10.5-10.53-11.63-13.89-1.07-10,.62-13.88C303.54,160.32,315.1,164.13,315.1,164.13Z"/><path class="cls-50" d="M295.32,200s3-3.83,5-4.46c2.35-.74,9.89,2.16,13.34,4.72,2.87,2.14,2.14,6.17,2.14,6.17Z"/><path class="cls-51" d="M255.74,294.83c2.76-8.1,17.05-84.47,30.05-92.73s37.36,6.74,40.66,14.72c1.86,4.48-7.06,30.15-11.85,55.67-3.72,19.8-2.62,39.24-2.71,39.54-1.39,4.92-29.6.51-45.57-6.61-.7-.31-3.23-1.56-3.78-1.87C257.61,300.82,254.72,297.81,255.74,294.83Z"/><path class="cls-26" d="M358.68,252.13a8.2,8.2,0,0,1-11.54,1.27l-13.51-10.82-6.58-5.27-14.67-11.74a8.21,8.21,0,0,1,10.26-12.82L337,224.27l3.42,2.74,17,13.58A8.22,8.22,0,0,1,358.68,252.13Z"/><path class="cls-26" d="M351.9,254.92c-7.4-1.41-7.31-13.17-5-17.68s13.37-26.85,14.76-31.91l9,1.3S366.55,257.72,351.9,254.92Z"/><path class="cls-52" d="M330.6,163.83a1.79,1.79,0,0,0-2.23.5s.57-6.46-2.4-6.82c-2.49-.3-2.17,2.54-3.39,2.79s-4.48-4.46-6.74-3.76c-1.24.38.7,2.63-1,2.7-12.82.5-19.31,5.84-20.5,10.73-1.44,6,4.47,23.86,4.47,23.86s2.9,4.88,9.06.46,2.71-9.44,7.4-13.76c.9-.83,3.64-.77,4.44-3.58.89-3.18,3.26-2.73,6.18-3.15C330.47,173.13,333.73,165.47,330.6,163.83Z"/><path class="cls-53" d="M311.89,177.48c1.22-1,3.42-.37,4.92,1.44s1.72,4.09.5,5.1-3.42.37-4.92-1.44S310.67,178.5,311.89,177.48Z"/><path class="cls-54" d="M304.42,458.9c-2.67.24-3.26-3.27-4.2-2.33-2.57,2.54-3.79,9.18-.46,10.9,2.84,1.46,5.89.47,7.63.79s7.35,3.86,11.8,4.82,8.13.62,8.25-1.46c.06-1.09-4.36-3.53-6.83-4.49s-4.86-4.22-6.65-5.63c-1.33-1.06-3.06-7.22-5.1-7C307.59,454.6,307.08,458.65,304.42,458.9Z"/><path class="cls-26" d="M484.81,327.28s-9.08-4-9.23-4.18.59-9-.21-10.1-3.05-4-3.45-4.41-5.05-2-5.84-2.2-1.27.67-.2,1.48a22.46,22.46,0,0,0,3.69,1.84L471,312s-3.09-1.43-3.48-1.57-5.66-1.54-6.24-1.77-1,.75-.33,1.42,6.95,3,6.95,3l-7-1.61c-.74-.18-1,1.34.31,1.93s5.78,2.21,5.78,2.21l2.2,1.48s-6.9-3-7.66-3.34-1.27.39-.07,1.3,3.72,3,3.72,3l2.06,4a9.43,9.43,0,0,0,1.82,4.79c1.59,1.76,11.16,7.74,11.16,7.74Z"/><g class="cls-55"><polygon class="cls-56" points="269.66 312.96 291.12 339.16 286.31 365.62 266.63 341.98 269.66 312.96"/></g><path class="cls-24" d="M340.45,227c0,2.55-.44,10.26-6.82,15.57l-6.58-5.27,10-13Z"/><path class="cls-57" d="M339.2,225.34c-2.73-2.19-16-13.31-16-13.31a9.14,9.14,0,0,0-11.43,14.26s14.41,11.3,16.91,13.54S341.92,227.52,339.2,225.34Z"/><path class="cls-26" d="M367.41,215.54s3.23-9.15,3.43-9.92,3-11.92,3.13-13-.81-1.73-1.23-1.45a7.78,7.78,0,0,0,.25-1.27c0-.32-1.23-1.85-2-1.11-.43.39-.48.59-.48.59a2.84,2.84,0,0,0-.2-1.88c-.46-.61-1-1-1.74-.8a2.78,2.78,0,0,0-1.11.74,10.43,10.43,0,0,0-2.84-.93c-.6.11-1.86,3.17-2.35,4s-2,3.56-1.88,4.53,1.51,9.28,1.43,9.66-2.11,7-2.11,7Z"/></g></svg>